<svg width="159" height="28" viewBox="0 0 159 28" fill="none" xmlns="http://www.w3.org/2000/svg">
	<path d="M118.734 22.8721H114.83V0.516539L118.734 4.53322V22.8721Z" fill="black" />
	<path d="M137.209 7.74146C139.231 7.74146 140.863 8.35701 142.104 9.58812C143.346 10.8192 143.966 12.6361 143.966 15.0387V22.8721H140.062V15.0387C140.062 12.6957 139.111 11.5241 137.209 11.5241C135.307 11.5241 134.356 12.6957 134.356 15.0387V22.8721H130.452V15.0387C130.452 12.6957 129.501 11.5241 127.599 11.5241C125.697 11.5241 124.746 12.6957 124.746 15.0387V22.8721H120.842V15.0387C120.842 12.6361 121.463 10.8192 122.704 9.58812C123.945 8.35701 125.577 7.74146 127.599 7.74146C129.721 7.74146 131.323 8.42651 132.404 9.79661C133.485 8.42651 135.087 7.74146 137.209 7.74146Z" fill="black" />
	<path d="M151.927 23.1104C150.125 23.1104 148.593 22.6636 147.332 21.7701C146.091 20.8765 145.47 19.6355 145.47 18.047H149.194C149.194 18.5235 149.454 18.9107 149.975 19.2086C150.515 19.5064 151.196 19.6554 152.017 19.6554C152.798 19.6554 153.398 19.5263 153.819 19.2682C154.259 18.9902 154.48 18.6427 154.48 18.2257C154.48 17.8484 154.259 17.5506 153.819 17.3321C153.378 17.1137 152.828 16.9648 152.167 16.8854C151.526 16.8059 150.816 16.6868 150.035 16.528C149.274 16.3492 148.563 16.1308 147.903 15.8727C147.262 15.6146 146.721 15.1777 146.281 14.5622C145.84 13.9466 145.62 13.1722 145.62 12.239C145.62 10.9483 146.211 9.87603 147.392 9.02221C148.593 8.16838 150.075 7.74146 151.837 7.74146C153.639 7.74146 155.11 8.17831 156.251 9.05199C157.393 9.90582 157.963 11.0972 157.963 12.6262H154.239C154.239 12.2092 153.989 11.8617 153.488 11.5837C153.008 11.3057 152.437 11.1667 151.777 11.1667C151.136 11.1667 150.595 11.2958 150.155 11.5539C149.735 11.812 149.524 12.1397 149.524 12.5368C149.524 12.9141 149.825 13.202 150.425 13.4006C151.026 13.5991 151.757 13.7679 152.618 13.9069C153.499 14.026 154.369 14.2047 155.23 14.443C156.091 14.6813 156.822 15.1281 157.423 15.7833C158.043 16.4187 158.364 17.2626 158.384 18.315C158.404 19.9036 157.813 21.1049 156.612 21.919C155.431 22.7133 153.869 23.1104 151.927 23.1104Z" fill="black" />
	<path d="M109.009 22.8103C110.238 22.8103 111.234 21.8141 111.234 20.5853C111.234 19.3565 110.238 18.3603 109.009 18.3603C107.78 18.3603 106.784 19.3565 106.784 20.5853C106.784 21.8141 107.78 22.8103 109.009 22.8103Z" fill="#FF6746" />
	<path d="M88.2621 22.81H92.1101V4.34862L88.2621 0.5V22.81Z" fill="black" />
	<path fill-rule="evenodd" clip-rule="evenodd" d="M48.7716 12.2262H42.1988V8.97892H53.4777V11.6392L46.9048 19.5626H53.4909V22.8099H42.1988V20.1496L48.7716 12.2262Z" fill="black" />
	<path fill-rule="evenodd" clip-rule="evenodd" d="M62.1331 12.1963C59.8479 12.1963 58.1642 13.9294 58.1642 15.8646C58.1642 17.7997 59.8479 19.5328 62.1331 19.5328C64.4182 19.5328 66.102 17.7997 66.102 15.8646C66.102 13.9294 64.4182 12.1963 62.1331 12.1963ZM54.496 15.8646C54.496 11.7221 58.0084 8.52812 62.1331 8.52812C66.2577 8.52812 69.7702 11.7221 69.7702 15.8646C69.7702 20.0071 66.2577 23.201 62.1331 23.201C58.0084 23.201 54.496 20.0071 54.496 15.8646Z" fill="black" />
	<path fill-rule="evenodd" clip-rule="evenodd" d="M7.74139 12.2566C5.83173 12.2566 4.28364 13.8046 4.28364 15.7143V22.8102H0.615417V15.7143C0.615417 11.7788 3.80582 8.58837 7.74139 8.58837H8.2826V12.2566H7.74139Z" fill="black" />
	<path fill-rule="evenodd" clip-rule="evenodd" d="M71.5442 15.6992C71.5442 11.7554 74.7346 8.55824 78.6702 8.55824C82.6059 8.55824 85.7959 11.7554 85.7959 15.6992V22.8102H82.1276V15.6992C82.1276 13.7856 80.5799 12.2342 78.6702 12.2342C76.7606 12.2342 75.2125 13.7856 75.2125 15.6992V22.8102H71.5442V15.6992Z" fill="black" />
	<path fill-rule="evenodd" clip-rule="evenodd" d="M40.8351 17.2477C41.2048 15.3541 40.7834 13.406 39.679 11.8181C38.5763 10.2327 36.8868 9.13798 34.9836 8.73243C33.0815 8.32708 31.0831 8.63418 29.4024 9.60176C27.719 10.5707 26.4699 12.1378 25.9519 13.9957C25.4331 15.8567 25.6979 17.8332 26.678 19.5014C27.6558 21.1658 29.259 22.3798 31.1279 22.92C32.9953 23.4597 35.0108 23.2937 36.7587 22.45C38.4873 21.6157 39.8404 20.1716 40.5108 18.3903H36.2364C35.9336 18.6918 35.573 18.9491 35.1642 19.1465C34.2359 19.5945 33.1513 19.6865 32.1463 19.396C31.1426 19.1059 30.3244 18.4664 29.8408 17.6433C29.7651 17.5144 29.6983 17.3823 29.6404 17.2477H40.8351ZM34.2191 12.3201C33.1914 12.1011 32.1186 12.2707 31.2325 12.7808C30.4758 13.2164 29.9169 13.8631 29.6152 14.6018H37.0427C36.9451 14.3629 36.82 14.1318 36.6675 13.9127C36.117 13.1211 35.2458 12.5389 34.2191 12.3201Z" fill="black" />
	<path fill-rule="evenodd" clip-rule="evenodd" d="M24.2678 17.2477C24.6375 15.3541 24.2161 13.406 23.1117 11.8181C22.009 10.2327 20.3195 9.13798 18.4163 8.73243C16.5141 8.32708 14.5158 8.63418 12.8351 9.60176C11.1517 10.5707 9.90266 12.1378 9.38463 13.9957C8.86578 15.8567 9.13061 17.8332 10.1107 19.5014C11.0885 21.1658 12.6917 22.3798 14.5606 22.92C16.4281 23.4597 18.4435 23.2937 20.1914 22.45C21.92 21.6157 23.2731 20.1716 23.9435 18.3903H19.6692C19.3663 18.6918 19.0057 18.9491 18.5969 19.1465C17.6686 19.5945 16.5841 19.6865 15.579 19.396C14.5753 19.1059 13.7571 18.4664 13.2735 17.6433C13.1979 17.5144 13.131 17.3823 13.0731 17.2477H24.2678ZM17.6519 12.3201C16.6241 12.1011 15.5513 12.2707 14.6652 12.7808C13.9085 13.2164 13.3496 13.8631 13.048 14.6018H20.4754C20.3778 14.3629 20.2527 14.1318 20.1002 13.9127C19.5497 13.1211 18.6785 12.5389 17.6519 12.3201Z" fill="black" />
	<path d="M93.5652 8.97892H97.5987L101.282 17.0323L104.965 8.97892H108.998L100.528 27.5004H96.495L99.2653 21.4425L93.5652 8.97892Z" fill="black" />
</svg>
