<svg xmlns="http://www.w3.org/2000/svg" viewBox="0 0 111 27" width="111" height="27" fill="none" id="svg1547848248_2084"><path d="M110.613 20.085a2.225 2.225 0 1 1-4.45 0 2.225 2.225 0 0 1 4.45 0Z" fill="red"/><path d="M87.645 22.31h3.848V3.849L87.645 0v22.31Z" fill="#000"/><path fill-rule="evenodd" clip-rule="evenodd" d="M48.155 11.726h-6.573V8.48h11.28v2.66l-6.574 7.923h6.586v3.248H41.582v-2.66l6.573-7.924Zm13.362-.03c-2.285 0-3.97 1.733-3.97 3.668s1.685 3.668 3.97 3.668 3.968-1.733 3.968-3.668-1.683-3.668-3.968-3.668Zm-7.637 3.668c0-4.142 3.512-7.336 7.637-7.336 4.124 0 7.637 3.194 7.637 7.336 0 4.143-3.513 7.336-7.637 7.336-4.125 0-7.637-3.193-7.637-7.336ZM7.126 11.756a3.458 3.458 0 0 0-3.458 3.458v7.096H0v-7.096a7.126 7.126 0 0 1 7.126-7.126h.541v3.668h-.541Zm63.802 3.443c0-3.944 3.19-7.141 7.126-7.141 3.935 0 7.125 3.197 7.125 7.14v7.112h-3.668v-7.111a3.461 3.461 0 0 0-3.457-3.465 3.461 3.461 0 0 0-3.458 3.465v7.11h-3.668V15.2Zm-30.709 1.548a7.105 7.105 0 0 0-1.156-5.43c-1.103-1.585-2.792-2.68-4.696-3.085a7.909 7.909 0 0 0-5.58.87c-1.684.968-2.933 2.535-3.451 4.393a7.086 7.086 0 0 0 .726 5.506c.978 1.664 2.58 2.878 4.45 3.418a7.925 7.925 0 0 0 5.63-.47c1.729-.834 3.082-2.278 3.752-4.06H35.62a3.95 3.95 0 0 1-1.072.757 4.256 4.256 0 0 1-3.018.25c-1.004-.29-1.822-.93-2.305-1.753a3.547 3.547 0 0 1-.2-.396h11.194Zm-6.616-4.927a4.24 4.24 0 0 0-2.987.46A3.751 3.751 0 0 0 29 14.101h7.427a3.57 3.57 0 0 0-.375-.689c-.55-.791-1.422-1.373-2.448-1.592Zm-9.951 4.927a7.106 7.106 0 0 0-1.156-5.43c-1.103-1.585-2.792-2.68-4.695-3.085a7.909 7.909 0 0 0-5.582.87c-1.683.968-2.932 2.535-3.45 4.393a7.085 7.085 0 0 0 .726 5.506c.978 1.664 2.581 2.878 4.45 3.418a7.925 7.925 0 0 0 5.63-.47c1.73-.834 3.082-2.278 3.753-4.06h-4.275a3.953 3.953 0 0 1-1.072.757 4.256 4.256 0 0 1-3.018.25c-1.003-.29-1.821-.93-2.305-1.753a3.565 3.565 0 0 1-.2-.396h11.194Zm-6.616-4.927a4.24 4.24 0 0 0-2.987.46 3.751 3.751 0 0 0-1.617 1.821h7.428a3.57 3.57 0 0 0-.375-.689c-.551-.791-1.422-1.373-2.449-1.592Z" fill="#000"/><path d="M92.947 8.479h4.034l3.683 8.053 3.682-8.053h4.034L99.91 27h-4.033l2.77-6.058-5.7-12.463Z" fill="#000"/></svg>