<?xml version="1.0" standalone="no"?>
  <!DOCTYPE svg PUBLIC "-//W3C//DTD SVG 1.1//EN" "http://www.w3.org/Graphics/SVG/1.1/DTD/svg11.dtd" >
  <svg>
  <metadata>
  Created by font-carrier
  </metadata>
  <defs>
  <font id="StyreneALC-Light" horiz-adv-x="1440" vert-adv-y="1440" >
    <font-face
      
      font-family="Styrene A LC Light"
      
      font-weight="400"
      
      font-stretch="normal"
      
      units-per-em="1000"
      
      ascent="1020"
      
      descent="-265"
      
    />
      <missing-glyph />

      

      
      <glyph glyph-name="uni24" unicode="&#x24;" d="M514 183C514 296 452 350 344 383L278 403C195 428 155 466 155 535C155 611 212 656 296 656C385 656 438 597 438 520L438 516L501 516L501 520C501 627 438 702 326 713L326 824L270 824L270 714C169 703 90 637 90 535C90 427 152 374 257 342L324 322C404 298 449 262 449 183C449 107 393 57 296 57C205 57 144 112 144 204L144 208L80 208L80 203C80 90 151 10 270-1L270-118L326-118L326-1C443 10 514 84 514 183Z"  horiz-adv-x="594" vert-adv-y="1000"  />

      
      <glyph glyph-name="uni25" unicode="&#x25;" d="M253 366C353 366 430 443 430 544C430 645 353 722 253 722C152 722 75 645 75 544C75 443 152 366 253 366ZM212 0L280 0L793 710L725 710ZM253 420C181 420 132 474 132 544C132 615 181 668 253 668C325 668 373 616 373 544C373 473 325 420 253 420ZM754-14C854-14 931 63 931 164C931 265 854 342 754 342C653 342 576 265 576 164C576 63 653-14 754-14ZM754 40C682 40 633 94 633 164C633 235 682 288 754 288C826 288 874 236 874 164C874 93 826 40 754 40Z"  horiz-adv-x="1006" vert-adv-y="1000"  />

      
      <glyph glyph-name="uni26" unicode="&#x26;" d="M655 0L735 0L550 177L737 394L662 394L508 216L339 377C400 414 485 471 485 563C485 655 418 722 313 722C209 722 139 651 139 562C139 490 181 442 240 387C149 336 63 272 63 168C63 60 150-12 269-12C377-12 438 48 512 133ZM204 563C204 626 249 667 313 667C376 667 421 627 421 563C421 495 360 451 301 413C247 464 204 504 204 563ZM129 169C129 253 204 301 281 349L470 172C399 92 348 47 269 47C185 47 129 98 129 169Z"  horiz-adv-x="764" vert-adv-y="1000"  />

      
      <glyph glyph-name="uni27" unicode="&#x27;" d="M165 415L165 710L107 710L107 415Z"  horiz-adv-x="272" vert-adv-y="1000"  />

      
      <glyph glyph-name="uni28" unicode="&#x28;" d="M221 822C173 728 95 576 95 350C95 123 173-31 221-124L280-124C230-32 153 124 153 350C153 577 230 730 280 822Z"  horiz-adv-x="349" vert-adv-y="1000"  />

      
      <glyph glyph-name="uni29" unicode="&#x29;" d="M128-124C176-31 254 123 254 350C254 576 176 728 128 822L69 822C119 730 196 577 196 350C196 124 119-32 69-124Z"  horiz-adv-x="349" vert-adv-y="1000"  />

      
      <glyph glyph-name="uni2a" unicode="&#x2a;" d="M371 408L271 537L416 585L400 630L259 583L259 729L209 729L209 583L68 630L52 585L198 537L98 408L136 380L234 507L332 380Z"  horiz-adv-x="468" vert-adv-y="1000"  />

      
      <glyph glyph-name="uni2b" unicode="&#x2b;" d="M592 288L592 343L370 343L370 573L312 573L312 343L89 343L89 288L312 288L312 58L370 58L370 288Z"  horiz-adv-x="681" vert-adv-y="1000"  />

      
      <glyph glyph-name="uni2c" unicode="&#x2c;" d="M118-209C150-148 173-74 173 10L173 137L93 137L93 0L132 0C128-72 105-142 70-209Z"  horiz-adv-x="266" vert-adv-y="1000"  />

      
      <glyph glyph-name="uni2d" unicode="&#x2d;" d="M89 255L401 255L401 314L89 314Z"  horiz-adv-x="490" vert-adv-y="1000"  />

      
      <glyph glyph-name="uni2e" unicode="&#x2e;" d="M93 0L169 0L169 137L93 137Z"  horiz-adv-x="262" vert-adv-y="1000"  />

      
      <glyph glyph-name="uni2f" unicode="&#x2f;" d="M41-70L98-70L363 760L305 760Z"  horiz-adv-x="410" vert-adv-y="1000"  />

      
      <glyph glyph-name="uni30" unicode="&#x30;" d="M342 722C196 722 102 627 102 467L102 243C102 80 197-12 342-12C489-12 583 80 583 243L583 467C583 627 489 722 342 722ZM342 49C224 49 167 132 167 244L167 467C167 579 225 661 342 661C459 661 517 579 517 467L517 244C517 132 461 49 342 49Z"  horiz-adv-x="684" vert-adv-y="1000"  />

      
      <glyph glyph-name="uni31" unicode="&#x31;" d="M306 713L261 713L53 579L53 514L240 631L240 0L306 0Z"  horiz-adv-x="434" vert-adv-y="1000"  />

      
      <glyph glyph-name="uni32" unicode="&#x32;" d="M563 61L186 61L360 232C454 323 522 396 522 510C522 627 438 722 300 722C164 722 81 625 81 497L81 461L146 461L146 496C146 593 204 661 300 661C396 661 455 597 455 510C455 419 405 364 317 276L79 40L79 0L563 0Z"  horiz-adv-x="615" vert-adv-y="1000"  />

      
      <glyph glyph-name="uni33" unicode="&#x33;" d="M560 193C560 308 483 359 428 372C477 388 537 439 537 532C537 640 452 722 312 722C163 722 94 622 89 540L155 540C163 604 217 662 313 662C404 662 471 610 471 530C471 445 415 398 327 398L210 398L210 337L325 337C430 337 493 288 493 196C493 104 421 49 314 49C205 49 147 116 136 176L70 176C81 91 153-12 314-12C467-12 560 74 560 193Z"  horiz-adv-x="637" vert-adv-y="1000"  />

      
      <glyph glyph-name="uni34" unicode="&#x34;" d="M648 230L648 288L486 288L486 710L418 710L50 264L50 230L422 230L422 0L486 0L486 230ZM143 288L422 629L422 288Z"  horiz-adv-x="691" vert-adv-y="1000"  />

      
      <glyph glyph-name="uni35" unicode="&#x35;" d="M119 324L174 324C185 344 231 403 326 403C433 403 502 334 502 231L502 222C502 120 433 49 326 49C202 49 157 134 149 187L84 187C92 94 166-12 326-12C473-12 567 88 567 222L567 231C567 371 470 464 337 464C260 464 209 432 182 401L182 650L540 650L540 710L119 710Z"  horiz-adv-x="646" vert-adv-y="1000"  />

      
      <glyph glyph-name="uni36" unicode="&#x36;" d="M572 227C572 372 474 464 338 464C293 464 260 453 233 434L449 710L371 710L175 458C122 392 77 322 77 227C77 92 167-12 324-12C479-12 572 94 572 227ZM506 227C506 130 441 49 324 49C209 49 144 130 144 227C144 329 214 406 324 406C441 406 506 329 506 227Z"  horiz-adv-x="648" vert-adv-y="1000"  />

      
      <glyph glyph-name="uni37" unicode="&#x37;" d="M553 665L553 710L70 710L70 650L476 650L110 0L182 0Z"  horiz-adv-x="613" vert-adv-y="1000"  />

      
      <glyph glyph-name="uni38" unicode="&#x38;" d="M580 189C580 293 507 350 448 366C501 382 566 432 566 531C566 643 485 722 347 722L319 722C180 722 99 643 99 531C99 432 164 382 217 366C158 350 85 293 85 189C85 69 173-12 317-12L346-12C490-12 580 69 580 189ZM347 662C439 662 501 612 501 529C501 446 438 395 347 395L319 395C227 395 165 446 165 529C165 612 227 662 319 662ZM348 335C444 335 514 279 514 192C514 103 447 48 348 48L318 48C219 48 152 103 152 192C152 279 222 335 318 335Z"  horiz-adv-x="665" vert-adv-y="1000"  />

      
      <glyph glyph-name="uni39" unicode="&#x39;" d="M473 253C524 320 571 387 571 484C571 617 481 722 325 722C169 722 76 616 76 484C76 337 174 246 310 246C357 246 390 258 417 277L199 0L277 0ZM143 484C143 581 205 661 325 661C440 661 505 581 505 484C505 380 435 304 325 304C205 304 143 380 143 484Z"  horiz-adv-x="648" vert-adv-y="1000"  />

      
      <glyph glyph-name="uni3a" unicode="&#x3a;" d="M98 0L174 0L174 137L98 137ZM98 341L174 341L174 478L98 478Z"  horiz-adv-x="272" vert-adv-y="1000"  />

      
      <glyph glyph-name="uni3b" unicode="&#x3b;" d="M98 341L174 341L174 478L98 478ZM123-209C155-148 178-74 178 10L178 137L98 137L98 0L137 0C133-72 110-142 75-209Z"  horiz-adv-x="276" vert-adv-y="1000"  />

      
      <glyph glyph-name="uni3c" unicode="&#x3c;" d="M535 129L163 295L535 461L535 524L89 320L89 271L535 68Z"  horiz-adv-x="634" vert-adv-y="1000"  />

      
      <glyph glyph-name="uni3d" unicode="&#x3d;" d="M606 381L606 436L93 436L93 381ZM606 178L606 233L93 233L93 178Z"  horiz-adv-x="699" vert-adv-y="1000"  />

      
      <glyph glyph-name="uni3e" unicode="&#x3e;" d="M545 271L545 320L99 524L99 463L472 297L99 130L99 68Z"  horiz-adv-x="634" vert-adv-y="1000"  />

      
      <glyph glyph-name="uni3f" unicode="&#x3f;" d="M236 236C236 272 245 288 277 309L350 356C429 407 475 456 475 543C475 651 401 722 278 722C161 722 83 646 83 530L83 498L145 498L145 528C145 609 194 665 278 665C362 665 411 618 411 543C411 482 376 443 316 404L243 357C183 318 173 296 173 240L173 236ZM167 0L242 0L242 136L167 136Z"  horiz-adv-x="540" vert-adv-y="1000"  />

      
      <glyph glyph-name="uni40" unicode="&#x40;" d="M870-13C833-47 737-121 560-121C300-121 137 44 137 279C137 531 312 696 552 696C792 696 926 556 926 362C926 199 844 122 770 122C719 122 703 154 714 211L766 494L707 494L689 394C673 441 624 499 523 499C391 499 308 399 308 275C308 144 392 70 503 70C583 70 636 111 659 150C663 107 697 70 769 70C894 70 984 195 984 361C984 564 840 748 552 748C276 748 79 550 79 280C79 28 253-174 560-174C785-174 900-67 938-13ZM527 442C620 442 668 382 668 295C668 199 604 128 508 128C420 128 371 185 371 273C371 369 432 442 527 442Z"  horiz-adv-x="1057" vert-adv-y="1000"  />

      
      <glyph glyph-name="uni41" unicode="&#x41;" d="M681 0L750 0L419 714L368 714L38 0L104 0L196 200L588 200ZM224 260L392 624L561 260Z"  horiz-adv-x="788" vert-adv-y="1000"  />

      
      <glyph glyph-name="uni42" unicode="&#x42;" d="M115 0L458 0C617 0 696 78 696 198C696 290 639 355 555 371C627 388 679 447 679 524C679 640 601 710 456 710L115 710ZM456 649C560 649 612 604 612 523C612 443 559 397 456 397L180 397L180 649ZM458 336C575 336 629 284 629 199C629 115 576 61 457 61L180 61L180 336Z"  horiz-adv-x="773" vert-adv-y="1000"  />

      
      <glyph glyph-name="uni43" unicode="&#x43;" d="M420-12C624-12 715 123 739 195L671 195C644 144 576 51 420 51C252 51 143 188 143 355C143 520 253 660 420 660C567 660 644 566 670 516L739 516C715 589 619 722 420 722C220 722 74 559 74 355C74 150 220-12 420-12Z"  horiz-adv-x="806" vert-adv-y="1000"  />

      
      <glyph glyph-name="uni44" unicode="&#x44;" d="M115 0L378 0C609 0 751 142 751 355C751 571 607 710 378 710L115 710ZM378 649C567 649 683 539 683 355C683 177 567 61 378 61L181 61L181 649Z"  horiz-adv-x="826" vert-adv-y="1000"  />

      
      <glyph glyph-name="uni45" unicode="&#x45;" d="M115 0L696 0L696 62L181 62L181 347L471 347L471 408L181 408L181 649L656 649L656 710L115 710Z"  horiz-adv-x="739" vert-adv-y="1000"  />

      
      <glyph glyph-name="uni46" unicode="&#x46;" d="M115 0L181 0L181 346L476 346L476 408L181 408L181 648L678 648L678 710L115 710Z"  horiz-adv-x="716" vert-adv-y="1000"  />

      
      <glyph glyph-name="uni47" unicode="&#x47;" d="M748 385L391 385L391 325L685 325L685 117C645 88 568 50 447 50C268 50 142 173 142 356C142 525 256 660 428 660C567 660 635 591 662 553L730 553C703 617 614 722 428 722C226 722 74 564 74 356C74 141 227-12 447-12C600-12 695 44 748 91Z"  horiz-adv-x="842" vert-adv-y="1000"  />

      
      <glyph glyph-name="uni48" unicode="&#x48;" d="M659 0L725 0L725 710L659 710L659 389L181 389L181 710L115 710L115 0L181 0L181 328L659 328Z"  horiz-adv-x="840" vert-adv-y="1000"  />

      
      <glyph glyph-name="uni49" unicode="&#x49;" d="M117 0L182 0L182 710L117 710Z"  horiz-adv-x="299" vert-adv-y="1000"  />

      
      <glyph glyph-name="uni4a" unicode="&#x4a;" d="M541 710L475 710L475 217C475 114 420 52 317 52C220 52 159 114 159 217L159 407L94 407L94 217C94 68 186-11 317-11C451-11 541 69 541 217Z"  horiz-adv-x="653" vert-adv-y="1000"  />

      
      <glyph glyph-name="uni4b" unicode="&#x4b;" d="M660 0L756 0L258 360L738 710L642 710L181 374L181 710L115 710L115 0L181 0L181 338Z"  horiz-adv-x="770" vert-adv-y="1000"  />

      
      <glyph glyph-name="uni4c" unicode="&#x4c;" d="M656 62L181 62L181 710L115 710L115 0L656 0Z"  horiz-adv-x="695" vert-adv-y="1000"  />

      
      <glyph glyph-name="uni4d" unicode="&#x4d;" d="M219 710L115 710L115 0L177 0L177 653L476-4L521-4L822 655L822 0L884 0L884 710L784 710L502 88Z"  horiz-adv-x="999" vert-adv-y="1000"  />

      
      <glyph glyph-name="uni4e" unicode="&#x4e;" d="M735 710L672 710L672 114L196 710L115 710L115 0L179 0L179 632L690-5L735-5Z"  horiz-adv-x="850" vert-adv-y="1000"  />

      
      <glyph glyph-name="uni4f" unicode="&#x4f;" d="M436-12C643-12 798 150 798 355C798 560 643 722 436 722C228 722 74 560 74 355C74 150 228-12 436-12ZM436 50C260 50 142 187 142 355C142 520 259 660 436 660C613 660 730 519 730 355C730 190 612 50 436 50Z"  horiz-adv-x="872" vert-adv-y="1000"  />

      
      <glyph glyph-name="uni50" unicode="&#x50;" d="M115 0L181 0L181 317L478 317C625 317 703 394 703 515C703 638 625 710 478 710L115 710ZM480 649C583 649 635 599 635 514C635 430 583 378 480 378L181 378L181 649Z"  horiz-adv-x="769" vert-adv-y="1000"  />

      
      <glyph glyph-name="uni51" unicode="&#x51;" d="M798 355C798 560 643 722 436 722C228 722 74 560 74 355C74 150 229-12 436-12C456-12 474-11 493-8L662-152L753-152L566 11C706 62 798 197 798 355ZM436 50C260 50 142 187 142 355C142 520 259 660 436 660C613 660 730 519 730 355C730 190 612 50 436 50Z"  horiz-adv-x="872" vert-adv-y="1000"  />

      
      <glyph glyph-name="uni52" unicode="&#x52;" d="M115 0L181 0L181 332L478 332L663 0L733 0L548 338C651 357 706 424 706 519C706 639 629 710 484 710L115 710ZM482 649C586 649 638 600 638 519C638 440 586 393 482 393L181 393L181 649Z"  horiz-adv-x="792" vert-adv-y="1000"  />

      
      <glyph glyph-name="uni53" unicode="&#x53;" d="M339 661C493 661 558 588 582 543L650 543C628 616 545 722 339 722C183 722 77 650 77 534C77 417 170 359 295 346C345 341 381 338 435 330C546 317 601 279 601 191C601 104 514 49 386 49C218 49 147 133 123 189L52 189C82 100 172-13 386-13C566-13 667 75 667 194C667 327 569 379 441 395L302 411C196 424 143 465 143 534C143 614 216 661 339 661Z"  horiz-adv-x="742" vert-adv-y="1000"  />

      
      <glyph glyph-name="uni54" unicode="&#x54;" d="M40 649L351 649L351 0L417 0L417 649L727 649L727 710L40 710Z"  horiz-adv-x="767" vert-adv-y="1000"  />

      
      <glyph glyph-name="uni55" unicode="&#x55;" d="M416 52C261 52 178 152 178 304L178 710L112 710L112 300C112 124 210-12 416-12C617-12 720 127 720 300L720 710L654 710L654 304C654 155 568 52 416 52Z"  horiz-adv-x="832" vert-adv-y="1000"  />

      
      <glyph glyph-name="uni56" unicode="&#x56;" d="M744 710L676 710L397 83L117 710L43 710L365-3L426-3Z"  horiz-adv-x="787" vert-adv-y="1000"  />

      
      <glyph glyph-name="uni57" unicode="&#x57;" d="M778-4L833-4L1072 710L1008 710L805 103L589 714L537 714L326 105L119 710L48 710L297-4L349-4L562 601Z"  horiz-adv-x="1120" vert-adv-y="1000"  />

      
      <glyph glyph-name="uni58" unicode="&#x58;" d="M681 0L764 0L442 362L751 710L670 710L401 408L132 710L45 710L359 360L39 0L120 0L399 314Z"  horiz-adv-x="803" vert-adv-y="1000"  />

      
      <glyph glyph-name="uni59" unicode="&#x59;" d="M414 304L735 710L658 710L382 362L104 710L20 710L348 302L348 0L414 0Z"  horiz-adv-x="755" vert-adv-y="1000"  />

      
      <glyph glyph-name="uni5a" unicode="&#x5a;" d="M720 62L156 62L667 671L667 710L65 710L65 649L566 649L55 38L55 0L720 0Z"  horiz-adv-x="765" vert-adv-y="1000"  />

      
      <glyph glyph-name="uni5b" unicode="&#x5b;" d="M115-124L344-124L344-74L171-74L171 772L344 772L344 822L115 822Z"  horiz-adv-x="374" vert-adv-y="1000"  />

      
      <glyph glyph-name="uni5c" unicode="&#x5c;" d="M369-70L105 760L47 760L312-70Z"  horiz-adv-x="410" vert-adv-y="1000"  />

      
      <glyph glyph-name="uni5d" unicode="&#x5d;" d="M30 772L203 772L203-74L30-74L30-124L259-124L259 822L30 822Z"  horiz-adv-x="374" vert-adv-y="1000"  />

      
      <glyph glyph-name="uni5e" unicode="&#x5e;" d="M463 271L528 271L318 716L266 716L58 271L120 271L292 636Z"  horiz-adv-x="585" vert-adv-y="1000"  />

      
      <glyph glyph-name="uni5f" unicode="&#x5f;" d="M49-135L565-135L565-81L49-81Z"  horiz-adv-x="614" vert-adv-y="1000"  />

      
      <glyph glyph-name="uni60" unicode="&#x60;" d="M387 577L282 750L213 750L323 577Z"  horiz-adv-x="600" vert-adv-y="1000"  />

      
      <glyph glyph-name="uni61" unicode="&#x61;" d="M487 0L550 0L550 482L487 482L487 381C476 410 418 494 300 494C168 494 63 390 63 241C63 92 168-12 300-12C420-12 474 72 487 104ZM489 241C489 135 416 47 309 47C201 47 128 135 128 241C128 348 201 435 309 435C416 435 489 348 489 241Z"  horiz-adv-x="649" vert-adv-y="1000"  />

      
      <glyph glyph-name="uni62" unicode="&#x62;" d="M161 101C174 72 232-12 353-12C489-12 593 92 593 241C593 390 489 494 353 494C234 494 172 409 161 379L161 736L99 736L99 0L161 0ZM160 241C160 348 235 435 344 435C455 435 529 348 529 241C529 134 455 48 344 48C235 48 160 134 160 241Z"  horiz-adv-x="656" vert-adv-y="1000"  />

      
      <glyph glyph-name="uni63" unicode="&#x63;" d="M528 340C515 388 455 494 302 494C167 494 62 385 62 241C62 98 166-12 303-12C460-12 515 100 528 142L466 142C453 114 409 47 303 47C200 47 127 133 127 241C127 348 200 436 302 436C400 436 449 372 465 340Z"  horiz-adv-x="584" vert-adv-y="1000"  />

      
      <glyph glyph-name="uni64" unicode="&#x64;" d="M495 0L558 0L558 736L495 736L495 381C482 412 425 494 304 494C167 494 63 390 63 241C63 92 167-12 304-12C425-12 482 74 495 106ZM497 241C497 134 422 47 313 47C201 47 128 134 128 241C128 349 201 435 313 435C422 435 497 349 497 241Z"  horiz-adv-x="657" vert-adv-y="1000"  />

      
      <glyph glyph-name="uni65" unicode="&#x65;" d="M304 494C163 494 62 383 62 241C62 102 165-12 313-12C467-12 530 89 541 129L480 129C466 107 424 47 313 47C198 47 126 137 126 241L126 242L547 242C544 387 447 494 304 494ZM304 439C397 439 459 381 478 296L130 296C149 380 209 439 304 439Z"  horiz-adv-x="604" vert-adv-y="1000"  />

      
      <glyph glyph-name="uni66" unicode="&#x66;" d="M449 425L449 482L248 482L248 571C248 643 277 679 356 679L541 679L541 736L351 736C236 736 186 682 186 578L186 482L30 482L30 425L186 425L186 0L248 0L248 425Z"  horiz-adv-x="479" vert-adv-y="1000"  />

      
      <glyph glyph-name="uni67" unicode="&#x67;" d="M496 1C496-114 425-178 309-178C196-178 149-116 136-92L67-92C80-135 143-236 309-236C467-236 558-142 558 1L558 482L496 482L496 381C483 412 425 494 304 494C168 494 63 390 63 241C63 92 168-12 304-12C425-12 483 72 496 104ZM497 241C497 135 422 47 313 47C202 47 128 135 128 241C128 348 202 435 313 435C422 435 497 348 497 241Z"  horiz-adv-x="657" vert-adv-y="1000"  />

      
      <glyph glyph-name="uni68" unicode="&#x68;" d="M162 262C162 366 230 435 322 435C418 435 482 369 482 262L482 0L545 0L545 273C545 402 459 494 335 494C242 494 180 430 162 380L162 736L99 736L99 0L162 0Z"  horiz-adv-x="638" vert-adv-y="1000"  />

      
      <glyph glyph-name="uni69" unicode="&#x69;" d="M99 587L163 587L163 729L99 729ZM100 0L162 0L162 482L100 482Z"  horiz-adv-x="262" vert-adv-y="1000"  />

      
      <glyph glyph-name="uni6a" unicode="&#x6a;" d="M99 587L163 587L163 729L99 729ZM162 482L100 482L100-48C100-128 70-165-5-165L-120-165L-120-224L3-224C112-224 162-170 162-53Z"  horiz-adv-x="262" vert-adv-y="1000"  />

      
      <glyph glyph-name="uni6b" unicode="&#x6b;" d="M472 0L563 0L231 253L550 482L455 482L160 269L160 736L99 736L99 0L160 0L160 232Z"  horiz-adv-x="576" vert-adv-y="1000"  />

      
      <glyph glyph-name="uni6c" unicode="&#x6c;" d="M101 0L164 0L164 736L101 736Z"  horiz-adv-x="265" vert-adv-y="1000"  />

      
      <glyph glyph-name="uni6d" unicode="&#x6d;" d="M162 266C162 360 227 435 320 435C412 435 474 367 474 266L474 0L537 0L537 266C537 360 602 435 695 435C788 435 850 367 850 266L850 0L913 0L913 278C913 402 829 494 706 494C598 494 543 417 522 366C493 443 425 494 333 494C237 494 180 428 162 381L162 482L99 482L99 0L162 0Z"  horiz-adv-x="1006" vert-adv-y="1000"  />

      
      <glyph glyph-name="uni6e" unicode="&#x6e;" d="M162 262C162 366 230 435 322 435C418 435 482 369 482 262L482 0L545 0L545 273C545 402 459 494 335 494C242 494 180 430 162 380L162 482L99 482L99 0L162 0Z"  horiz-adv-x="638" vert-adv-y="1000"  />

      
      <glyph glyph-name="uni6f" unicode="&#x6f;" d="M312 494C172 494 62 384 62 241C62 97 172-12 312-12C452-12 562 97 562 241C562 384 452 494 312 494ZM312 47C204 47 127 133 127 241C127 348 204 436 312 436C421 436 498 349 498 241C498 132 421 47 312 47Z"  horiz-adv-x="624" vert-adv-y="1000"  />

      
      <glyph glyph-name="uni70" unicode="&#x70;" d="M161 101C174 72 232-12 353-12C489-12 593 92 593 241C593 390 489 494 353 494C232 494 174 408 161 379L161 482L99 482L99-224L161-224ZM160 241C160 348 235 435 344 435C455 435 529 348 529 241C529 134 455 48 344 48C235 48 160 134 160 241Z"  horiz-adv-x="656" vert-adv-y="1000"  />

      
      <glyph glyph-name="uni71" unicode="&#x71;" d="M495-224L558-224L558 482L495 482L495 381C482 410 424 494 304 494C168 494 63 390 63 241C63 92 168-12 304-12C425-12 482 74 495 106ZM497 241C497 135 421 47 313 47C202 47 128 135 128 241C128 348 202 435 313 435C421 435 497 348 497 241Z"  horiz-adv-x="657" vert-adv-y="1000"  />

      
      <glyph glyph-name="uni72" unicode="&#x72;" d="M162 274C162 366 211 422 342 422L467 422L467 484L343 484C215 484 176 420 162 382L162 482L99 482L99 0L162 0Z"  horiz-adv-x="500" vert-adv-y="1000"  />

      
      <glyph glyph-name="uni73" unicode="&#x73;" d="M321 215C409 206 433 176 433 131C433 79 383 44 291 44C176 44 134 104 120 126L54 126C70 78 133-13 291-13C423-13 496 50 496 131C496 215 445 262 328 275L238 284C167 292 131 318 131 361C131 408 177 440 261 440C361 440 406 393 422 372L489 372C470 420 410 495 261 495C148 495 69 443 69 360C69 275 137 233 230 225L321 215Z"  horiz-adv-x="556" vert-adv-y="1000"  />

      
      <glyph glyph-name="uni74" unicode="&#x74;" d="M455 58L363 58C276 58 248 94 248 173L248 425L455 425L455 482L248 482L248 710L185 710L185 482L30 482L30 425L185 425L185 163C185 52 237 0 353 0L455 0Z"  horiz-adv-x="505" vert-adv-y="1000"  />

      
      <glyph glyph-name="uni75" unicode="&#x75;" d="M314-12C449-12 534 77 534 204L534 482L471 482L471 213C471 113 413 48 313 48C213 48 156 113 156 213L156 482L93 482L93 204C93 77 175-12 314-12Z"  horiz-adv-x="627" vert-adv-y="1000"  />

      
      <glyph glyph-name="uni76" unicode="&#x76;" d="M540 482L474 482L287 79L99 482L28 482L262-6L308-6Z"  horiz-adv-x="568" vert-adv-y="1000"  />

      
      <glyph glyph-name="uni77" unicode="&#x77;" d="M588-4L636-4L823 482L760 482L612 91L456 486L406 486L249 89L101 482L33 482L222-4L270-4L429 394Z"  horiz-adv-x="856" vert-adv-y="1000"  />

      
      <glyph glyph-name="uni78" unicode="&#x78;" d="M482 0L560 0L334 242L560 482L482 482L295 283L110 482L28 482L255 241L29 0L106 0L294 200Z"  horiz-adv-x="588" vert-adv-y="1000"  />

      
      <glyph glyph-name="uni79" unicode="&#x79;" d="M539 482L474 482L288 78L99 482L28 482L255 5L150-224L215-224Z"  horiz-adv-x="567" vert-adv-y="1000"  />

      
      <glyph glyph-name="uni7a" unicode="&#x7a;" d="M553 57L152 57L516 448L516 482L66 482L66 426L417 426L56 36L56 0L553 0Z"  horiz-adv-x="597" vert-adv-y="1000"  />

      
      <glyph glyph-name="uni7b" unicode="&#x7b;" d="M366-74L276-74C209-74 176-46 180 15C180 41 215 210 215 239C220 306 186 339 141 350C186 359 220 393 215 460C215 489 180 656 180 683C176 744 209 772 276 772L366 772L366 822L267 822C174 822 118 778 125 682C125 654 161 484 161 456C165 399 132 375 77 375L49 375L49 324L77 324C133 324 165 299 161 242C161 215 125 45 125 16C118-80 174-124 267-124L366-124Z"  horiz-adv-x="396" vert-adv-y="1000"  />

      
      <glyph glyph-name="uni7c" unicode="&#x7c;" d="M125-116L184-116L184 822L125 822Z"  horiz-adv-x="309" vert-adv-y="1000"  />

      
      <glyph glyph-name="uni7d" unicode="&#x7d;" d="M272 16C272 45 236 215 236 242C232 299 264 324 319 324L348 324L348 375L319 375C266 375 232 399 236 456C236 484 272 654 272 682C279 778 223 822 130 822L30 822L30 772L120 772C187 772 221 744 217 683C217 656 181 489 181 460C176 393 211 359 256 350C209 339 176 306 181 239C181 210 217 41 217 15C221-46 187-74 120-74L30-74L30-124L130-124C223-124 279-80 272 16Z"  horiz-adv-x="397" vert-adv-y="1000"  />

      
      <glyph glyph-name="uni7e" unicode="&#x7e;" d="M351 445C306 511 276 544 214 544C135 544 95 489 95 401L95 221L156 221L156 401C156 450 173 483 216 483C252 483 270 458 301 413L363 320C406 255 438 222 500 222C577 222 618 277 618 364L618 547L557 547L557 364C557 316 539 282 498 282C461 282 440 310 412 353Z"  horiz-adv-x="713" vert-adv-y="1000"  />

      
      <glyph glyph-name="unia1" unicode="&#xa1;" d="M115 347L190 347L190 482L115 482ZM122-228L183-228L183 244L122 244Z"  horiz-adv-x="305" vert-adv-y="1000"  />

      
      <glyph glyph-name="unia2" unicode="&#xa2;" d="M438 140C427 111 393 46 292 46C197 46 133 134 133 247C133 362 198 449 291 449C385 449 421 385 434 357L496 357C488 386 452 492 319 506L319 606L264 606L264 505C151 492 69 386 69 247C69 108 151 6 264-10L264-114L319-114L319-11C454 2 494 111 499 140Z"  horiz-adv-x="556" vert-adv-y="1000"  />

      
      <glyph glyph-name="unia3" unicode="&#xa3;" d="M653 61L250 61L250 288L492 288L492 349L250 349L250 510C250 601 292 662 384 662C476 662 520 601 520 510L520 478L584 478L584 511C584 642 515 722 384 722C256 722 185 640 185 511L185 349L65 349L65 288L185 288L185 61L65 61L65 0L653 0Z"  horiz-adv-x="706" vert-adv-y="1000"  />

      
      <glyph glyph-name="unia5" unicode="&#xa5;" d="M602 164L602 220L388 220L388 333L602 333L602 389L388 389L633 710L558 710L355 445L146 710L65 710L320 389L107 389L107 333L322 333L322 220L107 220L107 164L322 164L322 0L388 0L388 164Z"  horiz-adv-x="698" vert-adv-y="1000"  />

      
      <glyph glyph-name="unia7" unicode="&#xa7;" d="M518-30C518 34 505 78 474 105C551 116 600 162 600 242C600 325 554 376 451 395L303 423C235 436 216 476 216 543L216 564C216 649 260 692 335 692C408 692 454 648 454 564L454 521L515 521L515 565C515 685 447 749 335 749C226 749 154 683 154 566L154 543C154 480 165 434 200 406C127 399 72 353 72 272C72 189 120 137 221 118L369 90C436 78 456 35 456-30L456-51C456-136 413-179 338-179C263-179 219-135 219-51L219-10L157-10L157-52C157-172 225-236 338-236C446-236 518-172 518-53ZM437 337C504 325 538 292 538 238C538 162 481 127 390 147L236 176C169 188 135 223 135 275C135 351 191 383 283 366Z"  horiz-adv-x="672" vert-adv-y="1000"  />

      
      <glyph glyph-name="unia8" unicode="&#xa8;" d="M175 587L238 587L238 727L175 727ZM363 587L426 587L426 727L363 727Z"  horiz-adv-x="600" vert-adv-y="1000"  />

      
      <glyph glyph-name="unia9" unicode="&#xa9;" d="M442-12C651-12 809 147 809 355C809 563 651 722 442 722C232 722 75 563 75 355C75 146 230-12 442-12ZM442 39C259 39 130 177 130 355C130 532 259 671 442 671C626 671 755 531 755 355C755 178 626 39 442 39ZM316 357C316 434 365 500 446 500C511 500 543 459 556 436L617 436C607 478 555 556 446 556C337 556 255 468 255 357C255 246 337 158 446 158C560 158 607 238 618 283L558 283C545 255 513 214 446 214C365 214 316 280 316 357Z"  horiz-adv-x="884" vert-adv-y="1000"  />

      
      <glyph glyph-name="uniaa" unicode="&#xaa;" d="M382 296L443 296L443 710L382 710L382 634C372 657 337 721 250 721C149 721 70 639 70 503C70 367 149 286 250 286C335 286 371 351 382 378ZM383 503C383 413 338 343 259 343C176 343 133 413 133 503C133 595 176 665 259 665C338 665 383 595 383 503Z"  horiz-adv-x="535" vert-adv-y="1000"  />

      
      <glyph glyph-name="uniab" unicode="&#xab;" d="M250 451L187 451L70 275L187 100L250 100L133 276ZM456 451L393 451L276 275L393 100L456 100L339 276Z"  horiz-adv-x="531" vert-adv-y="1000"  />

      
      <glyph glyph-name="uniae" unicode="&#xae;" d="M291 246C427 246 529 351 529 484C529 617 427 722 291 722C155 722 53 617 53 484C53 348 154 246 291 246ZM291 289C176 289 98 375 98 484C98 592 175 679 291 679C408 679 484 592 484 484C484 375 408 289 291 289ZM196 368L244 368L244 457L310 457L356 368L405 368L357 463C388 473 403 495 403 529C403 576 376 603 317 603L196 603ZM316 560C342 560 355 550 355 529C355 508 342 498 316 498L244 498L244 560Z"  horiz-adv-x="582" vert-adv-y="1000"  />

      
      <glyph glyph-name="uniaf" unicode="&#xaf;" d="M395 620L395 675L105 675L105 620Z"  horiz-adv-x="500" vert-adv-y="1000"  />

      
      <glyph glyph-name="unib0" unicode="&#xb0;" d="M275 363C377 363 454 442 454 543C454 643 377 722 275 722C174 722 95 643 95 543C95 442 174 363 275 363ZM275 417C201 417 152 471 152 543C152 614 202 668 275 668C347 668 397 614 397 543C397 471 347 417 275 417Z"  horiz-adv-x="549" vert-adv-y="1000"  />

      
      <glyph glyph-name="unib4" unicode="&#xb4;" d="M213 577L278 577L387 750L319 750Z"  horiz-adv-x="600" vert-adv-y="1000"  />

      
      <glyph glyph-name="unib6" unicode="&#xb6;" d="M50 542C50 440 123 373 230 373L271 373L271 0L330 0L330 653L461 653L461 0L520 0L520 710L230 710C123 710 50 643 50 542Z"  horiz-adv-x="635" vert-adv-y="1000"  />

      
      <glyph glyph-name="unib7" unicode="&#xb7;" d="M93 305L169 305L169 442L93 442Z"  horiz-adv-x="261" vert-adv-y="1000"  />

      
      <glyph glyph-name="unib8" unicode="&#xb8;" d="M358-161C358-192 340-207 303-207L185-207L185-260L309-260C385-260 419-217 419-161C419-105 386-66 307-66L284-66L284 0L227 0L227-116L303-116C340-116 358-133 358-161Z"  horiz-adv-x="600" vert-adv-y="1000"  />

      
      <glyph glyph-name="uniba" unicode="&#xba;" d="M266 723C150 723 73 629 73 504C73 380 150 286 266 286C382 286 459 380 459 504C459 629 382 723 266 723ZM266 342C182 342 136 413 136 504C136 594 182 667 266 667C351 667 397 594 397 504C397 413 351 342 266 342Z"  horiz-adv-x="532" vert-adv-y="1000"  />

      
      <glyph glyph-name="unibb" unicode="&#xbb;" d="M461 275L345 451L281 451L398 275L281 100L344 100ZM255 275L139 451L75 451L192 275L75 100L138 100Z"  horiz-adv-x="531" vert-adv-y="1000"  />

      
      <glyph glyph-name="unibf" unicode="&#xbf;" d="M298 246C298 210 289 194 257 173L184 126C105 75 59 26 59-61C59-169 133-240 256-240C373-240 451-164 451-48L451-16L389-16L389-46C389-127 340-183 256-183C172-183 123-136 123-61C123 0 158 39 218 78L291 125C351 164 361 186 361 242L361 246ZM367 482L292 482L292 346L367 346Z"  horiz-adv-x="534" vert-adv-y="1000"  />

      
      <glyph glyph-name="unic0" unicode="&#xc0;" d="M681 0L750 0L419 714L368 714L38 0L104 0L196 200L588 200ZM224 260L392 624L561 260ZM429 783L320 923L244 923L358 783Z"  horiz-adv-x="788" vert-adv-y="1000"  />

      
      <glyph glyph-name="unic1" unicode="&#xc1;" d="M681 0L750 0L419 714L368 714L38 0L104 0L196 200L588 200ZM224 260L392 624L561 260ZM359 783L430 783L543 923L468 923Z"  horiz-adv-x="788" vert-adv-y="1000"  />

      
      <glyph glyph-name="unic2" unicode="&#xc2;" d="M681 0L750 0L419 714L368 714L38 0L104 0L196 200L588 200ZM224 260L392 624L561 260ZM492 780L559 780L420 926L367 926L227 780L296 780L394 879Z"  horiz-adv-x="788" vert-adv-y="1000"  />

      
      <glyph glyph-name="unic3" unicode="&#xc3;" d="M681 0L750 0L419 714L368 714L38 0L104 0L196 200L588 200ZM224 260L392 624L561 260ZM399 820C430 801 449 786 482 786C529 786 550 819 550 868L550 933L497 933L497 873C497 852 490 842 475 842C460 842 450 849 433 861L387 891C356 910 336 926 304 926C257 926 237 894 237 843L237 778L289 778L289 839C289 858 296 870 311 870C324 870 337 862 354 851Z"  horiz-adv-x="788" vert-adv-y="1000"  />

      
      <glyph glyph-name="unic4" unicode="&#xc4;" d="M681 0L750 0L419 714L368 714L38 0L104 0L196 200L588 200ZM224 260L392 624L561 260ZM260 783L323 783L323 922L260 922ZM463 783L526 783L526 922L463 922Z"  horiz-adv-x="788" vert-adv-y="1000"  />

      
      <glyph glyph-name="unic5" unicode="&#xc5;" d="M681 0L750 0L419 714L368 714L38 0L104 0L196 200L588 200ZM224 260L392 624L561 260ZM393 776C465 776 516 829 516 896C516 964 462 1015 393 1015C323 1015 271 964 271 896C271 829 323 776 393 776ZM393 823C350 823 321 855 321 896C321 937 349 968 393 968C437 968 466 937 466 896C466 855 437 823 393 823Z"  horiz-adv-x="788" vert-adv-y="1000"  />

      
      <glyph glyph-name="unic6" unicode="&#xc6;" d="M1112 62L618 62L618 347L887 347L887 408L618 408L618 649L1072 649L1072 710L523 710L5 0L80 0L223 197L553 197L553 0L1112 0ZM266 256L553 651L553 256Z"  horiz-adv-x="1155" vert-adv-y="1000"  />

      
      <glyph glyph-name="unic7" unicode="&#xc7;" d="M420-12C624-12 715 123 739 195L671 195C644 144 576 51 420 51C252 51 143 188 143 355C143 520 253 660 420 660C567 660 644 566 670 516L739 516C715 589 619 722 420 722C220 722 74 559 74 355C74 150 220-12 420-12ZM492-161C492-192 474-207 437-207L319-207L319-260L443-260C519-260 553-217 553-161C553-105 520-66 441-66L418-66L418 0L361 0L361-116L437-116C474-116 492-133 492-161Z"  horiz-adv-x="806" vert-adv-y="1000"  />

      
      <glyph glyph-name="unic8" unicode="&#xc8;" d="M115 0L696 0L696 62L181 62L181 347L471 347L471 408L181 408L181 649L656 649L656 710L115 710ZM429 783L320 923L244 923L358 783Z"  horiz-adv-x="739" vert-adv-y="1000"  />

      
      <glyph glyph-name="unic9" unicode="&#xc9;" d="M115 0L696 0L696 62L181 62L181 347L471 347L471 408L181 408L181 649L656 649L656 710L115 710ZM353 783L424 783L537 923L462 923Z"  horiz-adv-x="739" vert-adv-y="1000"  />

      
      <glyph glyph-name="unica" unicode="&#xca;" d="M115 0L696 0L696 62L181 62L181 347L471 347L471 408L181 408L181 649L656 649L656 710L115 710ZM492 780L559 780L420 926L367 926L227 780L296 780L394 879Z"  horiz-adv-x="739" vert-adv-y="1000"  />

      
      <glyph glyph-name="unicb" unicode="&#xcb;" d="M115 0L696 0L696 62L181 62L181 347L471 347L471 408L181 408L181 649L656 649L656 710L115 710ZM260 783L323 783L323 922L260 922ZM463 783L526 783L526 922L463 922Z"  horiz-adv-x="739" vert-adv-y="1000"  />

      
      <glyph glyph-name="unicc" unicode="&#xcc;" d="M117 0L182 0L182 710L117 710ZM185 783L76 923L0 923L114 783Z"  horiz-adv-x="299" vert-adv-y="1000"  />

      
      <glyph glyph-name="unicd" unicode="&#xcd;" d="M117 0L182 0L182 710L117 710ZM114 783L185 783L298 923L223 923Z"  horiz-adv-x="299" vert-adv-y="1000"  />

      
      <glyph glyph-name="unice" unicode="&#xce;" d="M117 0L182 0L182 710L117 710ZM247 780L314 780L175 926L122 926L-18 780L51 780L149 879Z"  horiz-adv-x="299" vert-adv-y="1000"  />

      
      <glyph glyph-name="unicf" unicode="&#xcf;" d="M117 0L182 0L182 710L117 710ZM16 783L79 783L79 922L16 922ZM219 783L282 783L282 922L219 922Z"  horiz-adv-x="299" vert-adv-y="1000"  />

      
      <glyph glyph-name="unid1" unicode="&#xd1;" d="M735 710L672 710L672 114L196 710L115 710L115 0L179 0L179 632L690-5L735-5ZM443 820C474 801 493 786 526 786C573 786 594 819 594 868L594 933L541 933L541 873C541 852 534 842 519 842C504 842 494 849 477 861L431 891C400 910 380 926 348 926C301 926 281 894 281 843L281 778L333 778L333 839C333 858 340 870 355 870C368 870 381 862 398 851Z"  horiz-adv-x="850" vert-adv-y="1000"  />

      
      <glyph glyph-name="unid2" unicode="&#xd2;" d="M436-12C643-12 798 150 798 355C798 560 643 722 436 722C228 722 74 560 74 355C74 150 228-12 436-12ZM436 50C260 50 142 187 142 355C142 520 259 660 436 660C613 660 730 519 730 355C730 190 612 50 436 50ZM472 783L363 923L287 923L401 783Z"  horiz-adv-x="872" vert-adv-y="1000"  />

      
      <glyph glyph-name="unid3" unicode="&#xd3;" d="M436-12C643-12 798 150 798 355C798 560 643 722 436 722C228 722 74 560 74 355C74 150 228-12 436-12ZM436 50C260 50 142 187 142 355C142 520 259 660 436 660C613 660 730 519 730 355C730 190 612 50 436 50ZM402 783L473 783L586 923L511 923Z"  horiz-adv-x="872" vert-adv-y="1000"  />

      
      <glyph glyph-name="unid4" unicode="&#xd4;" d="M436-12C643-12 798 150 798 355C798 560 643 722 436 722C228 722 74 560 74 355C74 150 228-12 436-12ZM436 50C260 50 142 187 142 355C142 520 259 660 436 660C613 660 730 519 730 355C730 190 612 50 436 50ZM535 780L602 780L463 926L410 926L270 780L339 780L437 879Z"  horiz-adv-x="872" vert-adv-y="1000"  />

      
      <glyph glyph-name="unid5" unicode="&#xd5;" d="M436-12C643-12 798 150 798 355C798 560 643 722 436 722C228 722 74 560 74 355C74 150 228-12 436-12ZM436 50C260 50 142 187 142 355C142 520 259 660 436 660C613 660 730 519 730 355C730 190 612 50 436 50ZM442 820C473 801 492 786 525 786C572 786 593 819 593 868L593 933L540 933L540 873C540 852 533 842 518 842C503 842 493 849 476 861L430 891C399 910 379 926 347 926C300 926 280 894 280 843L280 778L332 778L332 839C332 858 339 870 354 870C367 870 380 862 397 851Z"  horiz-adv-x="872" vert-adv-y="1000"  />

      
      <glyph glyph-name="unid6" unicode="&#xd6;" d="M436-12C643-12 798 150 798 355C798 560 643 722 436 722C228 722 74 560 74 355C74 150 228-12 436-12ZM436 50C260 50 142 187 142 355C142 520 259 660 436 660C613 660 730 519 730 355C730 190 612 50 436 50ZM303 783L366 783L366 922L303 922ZM506 783L569 783L569 922L506 922Z"  horiz-adv-x="872" vert-adv-y="1000"  />

      
      <glyph glyph-name="unid8" unicode="&#xd8;" d="M798 355C798 451 764 539 705 604L803 710L725 710L663 643C602 694 524 722 436 722C228 722 74 560 74 355C74 258 108 171 167 106L69 0L146 0L208 67C269 16 348-12 436-12C643-12 798 150 798 355ZM142 355C142 520 259 660 436 660C509 660 572 636 620 597L211 153C167 208 142 276 142 355ZM730 355C730 190 612 50 436 50C363 50 300 74 251 113L661 556C705 501 730 431 730 355Z"  horiz-adv-x="872" vert-adv-y="1000"  />

      
      <glyph glyph-name="unid9" unicode="&#xd9;" d="M416 52C261 52 178 152 178 304L178 710L112 710L112 300C112 124 210-12 416-12C617-12 720 127 720 300L720 710L654 710L654 304C654 155 568 52 416 52ZM467 783L358 923L282 923L396 783Z"  horiz-adv-x="832" vert-adv-y="1000"  />

      
      <glyph glyph-name="unida" unicode="&#xda;" d="M416 52C261 52 178 152 178 304L178 710L112 710L112 300C112 124 210-12 416-12C617-12 720 127 720 300L720 710L654 710L654 304C654 155 568 52 416 52ZM367 783L438 783L551 923L476 923Z"  horiz-adv-x="832" vert-adv-y="1000"  />

      
      <glyph glyph-name="unidb" unicode="&#xdb;" d="M416 52C261 52 178 152 178 304L178 710L112 710L112 300C112 124 210-12 416-12C617-12 720 127 720 300L720 710L654 710L654 304C654 155 568 52 416 52ZM515 780L582 780L443 926L390 926L250 780L319 780L417 879Z"  horiz-adv-x="832" vert-adv-y="1000"  />

      
      <glyph glyph-name="unidc" unicode="&#xdc;" d="M416 52C261 52 178 152 178 304L178 710L112 710L112 300C112 124 210-12 416-12C617-12 720 127 720 300L720 710L654 710L654 304C654 155 568 52 416 52ZM283 783L346 783L346 922L283 922ZM486 783L549 783L549 922L486 922Z"  horiz-adv-x="832" vert-adv-y="1000"  />

      
      <glyph glyph-name="unidf" unicode="&#xdf;" d="M162 528C162 633 222 690 313 690C405 690 465 641 465 558C465 473 409 426 321 426L271 426L271 369L335 369C448 369 510 309 510 214C510 118 448 58 335 58L271 58L271 0L344 0C491 0 574 87 574 214C574 320 504 390 423 406C472 420 529 467 529 559C529 675 444 748 313 748C181 748 99 668 99 531L99 0L162 0Z"  horiz-adv-x="636" vert-adv-y="1000"  />

      
      <glyph glyph-name="unie0" unicode="&#xe0;" d="M487 0L550 0L550 482L487 482L487 381C476 410 418 494 300 494C168 494 63 390 63 241C63 92 168-12 300-12C420-12 474 72 487 104ZM489 241C489 135 416 47 309 47C201 47 128 135 128 241C128 348 201 435 309 435C416 435 489 348 489 241ZM340 577L235 750L166 750L276 577Z"  horiz-adv-x="649" vert-adv-y="1000"  />

      
      <glyph glyph-name="unie1" unicode="&#xe1;" d="M487 0L550 0L550 482L487 482L487 381C476 410 418 494 300 494C168 494 63 390 63 241C63 92 168-12 300-12C420-12 474 72 487 104ZM489 241C489 135 416 47 309 47C201 47 128 135 128 241C128 348 201 435 309 435C416 435 489 348 489 241ZM272 577L337 577L446 750L378 750Z"  horiz-adv-x="649" vert-adv-y="1000"  />

      
      <glyph glyph-name="unie2" unicode="&#xe2;" d="M487 0L550 0L550 482L487 482L487 381C476 410 418 494 300 494C168 494 63 390 63 241C63 92 168-12 300-12C420-12 474 72 487 104ZM489 241C489 135 416 47 309 47C201 47 128 135 128 241C128 348 201 435 309 435C416 435 489 348 489 241ZM395 574L456 574L335 757L284 757L162 574L224 574L310 701Z"  horiz-adv-x="649" vert-adv-y="1000"  />

      
      <glyph glyph-name="unie3" unicode="&#xe3;" d="M487 0L550 0L550 482L487 482L487 381C476 410 418 494 300 494C168 494 63 390 63 241C63 92 168-12 300-12C420-12 474 72 487 104ZM489 241C489 135 416 47 309 47C201 47 128 135 128 241C128 348 201 435 309 435C416 435 489 348 489 241ZM212 573L212 644C212 665 219 675 234 675C249 675 256 667 271 654L311 617C338 594 356 578 389 578C436 578 458 610 458 661L458 736L406 736L406 665C406 644 399 634 384 634C371 634 362 640 347 655L307 692C280 715 262 731 229 731C182 731 160 699 160 648L160 573Z"  horiz-adv-x="649" vert-adv-y="1000"  />

      
      <glyph glyph-name="unie4" unicode="&#xe4;" d="M487 0L550 0L550 482L487 482L487 381C476 410 418 494 300 494C168 494 63 390 63 241C63 92 168-12 300-12C420-12 474 72 487 104ZM489 241C489 135 416 47 309 47C201 47 128 135 128 241C128 348 201 435 309 435C416 435 489 348 489 241ZM184 587L247 587L247 727L184 727ZM372 587L435 587L435 727L372 727Z"  horiz-adv-x="649" vert-adv-y="1000"  />

      
      <glyph glyph-name="unie5" unicode="&#xe5;" d="M487 0L550 0L550 482L487 482L487 381C476 410 418 494 300 494C168 494 63 390 63 241C63 92 168-12 300-12C420-12 474 72 487 104ZM489 241C489 135 416 47 309 47C201 47 128 135 128 241C128 348 201 435 309 435C416 435 489 348 489 241ZM310 565C382 565 433 618 433 685C433 753 379 804 310 804C240 804 188 753 188 685C188 618 240 565 310 565ZM310 612C267 612 238 644 238 685C238 726 266 757 310 757C354 757 383 726 383 685C383 644 354 612 310 612Z"  horiz-adv-x="649" vert-adv-y="1000"  />

      
      <glyph glyph-name="unie6" unicode="&#xe6;" d="M827 129C813 107 774 47 666 47C555 47 483 137 483 241L483 243L833 243L895 242L895 243C895 389 797 495 658 495C566 495 495 446 462 382C438 449 374 495 275 495C153 495 91 416 77 362L141 362C149 386 189 438 275 438C363 438 423 388 424 295L250 295C133 295 63 245 63 150C63 49 151-12 263-12C376-12 434 61 450 119C482 48 561-12 666-12C815-12 878 89 889 129ZM126 150C126 213 173 243 252 243L424 243L424 187C424 98 351 43 263 43C188 43 126 81 126 150ZM657 439C749 439 808 382 827 295L488 295C505 379 565 439 657 439Z"  horiz-adv-x="946" vert-adv-y="1000"  />

      
      <glyph glyph-name="unie7" unicode="&#xe7;" d="M528 340C515 388 455 494 302 494C167 494 62 385 62 241C62 133 121 46 207 7C218 2 230-1 242-4L242-116L319-116C355-116 374-133 374-161C374-192 356-207 319-207L201-207L201-260L324-260C401-260 435-217 435-161C435-105 402-66 323-66L299-66L299-12L303-12C460-12 515 100 528 142L466 142C453 114 409 47 303 47C200 47 127 133 127 241C127 348 200 436 302 436C400 436 449 372 465 340Z"  horiz-adv-x="584" vert-adv-y="1000"  />

      
      <glyph glyph-name="unie8" unicode="&#xe8;" d="M304 494C163 494 62 383 62 241C62 102 165-12 313-12C467-12 530 89 541 129L480 129C466 107 424 47 313 47C198 47 126 137 126 241L126 242L547 242C544 387 447 494 304 494ZM304 439C397 439 459 381 478 296L130 296C149 380 209 439 304 439ZM335 577L230 750L161 750L271 577Z"  horiz-adv-x="604" vert-adv-y="1000"  />

      
      <glyph glyph-name="unie9" unicode="&#xe9;" d="M304 494C163 494 62 383 62 241C62 102 165-12 313-12C467-12 530 89 541 129L480 129C466 107 424 47 313 47C198 47 126 137 126 241L126 242L547 242C544 387 447 494 304 494ZM304 439C397 439 459 381 478 296L130 296C149 380 209 439 304 439ZM267 577L332 577L441 750L373 750Z"  horiz-adv-x="604" vert-adv-y="1000"  />

      
      <glyph glyph-name="uniea" unicode="&#xea;" d="M304 494C163 494 62 383 62 241C62 102 165-12 313-12C467-12 530 89 541 129L480 129C466 107 424 47 313 47C198 47 126 137 126 241L126 242L547 242C544 387 447 494 304 494ZM304 439C397 439 459 381 478 296L130 296C149 380 209 439 304 439ZM390 574L451 574L330 757L279 757L157 574L219 574L305 701Z"  horiz-adv-x="604" vert-adv-y="1000"  />

      
      <glyph glyph-name="unieb" unicode="&#xeb;" d="M304 494C163 494 62 383 62 241C62 102 165-12 313-12C467-12 530 89 541 129L480 129C466 107 424 47 313 47C198 47 126 137 126 241L126 242L547 242C544 387 447 494 304 494ZM304 439C397 439 459 381 478 296L130 296C149 380 209 439 304 439ZM179 587L242 587L242 727L179 727ZM367 587L430 587L430 727L367 727Z"  horiz-adv-x="604" vert-adv-y="1000"  />

      
      <glyph glyph-name="uniec" unicode="&#xec;" d="M100 0L162 0L162 482L100 482ZM162 577L57 750L-12 750L98 577Z"  horiz-adv-x="262" vert-adv-y="1000"  />

      
      <glyph glyph-name="unied" unicode="&#xed;" d="M100 0L162 0L162 482L100 482ZM98 577L163 577L272 750L204 750Z"  horiz-adv-x="262" vert-adv-y="1000"  />

      
      <glyph glyph-name="uniee" unicode="&#xee;" d="M214 574L274 574L156 757L105 757L-15 574L47 574L131 701ZM100 0L162 0L162 482L100 482Z"  horiz-adv-x="262" vert-adv-y="1000"  />

      
      <glyph glyph-name="unief" unicode="&#xef;" d="M7 587L70 587L70 727L7 727ZM192 587L255 587L255 727L192 727ZM100 0L162 0L162 482L100 482Z"  horiz-adv-x="262" vert-adv-y="1000"  />

      
      <glyph glyph-name="unif1" unicode="&#xf1;" d="M162 262C162 366 230 435 322 435C418 435 482 369 482 262L482 0L545 0L545 273C545 402 459 494 335 494C242 494 180 430 162 380L162 482L99 482L99 0L162 0ZM225 573L225 644C225 665 232 675 247 675C262 675 269 667 284 654L324 617C351 594 369 578 402 578C449 578 471 610 471 661L471 736L419 736L419 665C419 644 412 634 397 634C384 634 375 640 360 655L320 692C293 715 275 731 242 731C195 731 173 699 173 648L173 573Z"  horiz-adv-x="638" vert-adv-y="1000"  />

      
      <glyph glyph-name="unif2" unicode="&#xf2;" d="M312 494C172 494 62 384 62 241C62 97 172-12 312-12C452-12 562 97 562 241C562 384 452 494 312 494ZM312 47C204 47 127 133 127 241C127 348 204 436 312 436C421 436 498 349 498 241C498 132 421 47 312 47ZM343 577L238 750L169 750L279 577Z"  horiz-adv-x="624" vert-adv-y="1000"  />

      
      <glyph glyph-name="unif3" unicode="&#xf3;" d="M312 494C172 494 62 384 62 241C62 97 172-12 312-12C452-12 562 97 562 241C562 384 452 494 312 494ZM312 47C204 47 127 133 127 241C127 348 204 436 312 436C421 436 498 349 498 241C498 132 421 47 312 47ZM275 577L340 577L449 750L381 750Z"  horiz-adv-x="624" vert-adv-y="1000"  />

      
      <glyph glyph-name="unif4" unicode="&#xf4;" d="M312 494C172 494 62 384 62 241C62 97 172-12 312-12C452-12 562 97 562 241C562 384 452 494 312 494ZM312 47C204 47 127 133 127 241C127 348 204 436 312 436C421 436 498 349 498 241C498 132 421 47 312 47ZM398 574L459 574L338 757L287 757L165 574L227 574L313 701Z"  horiz-adv-x="624" vert-adv-y="1000"  />

      
      <glyph glyph-name="unif5" unicode="&#xf5;" d="M312 494C172 494 62 384 62 241C62 97 172-12 312-12C452-12 562 97 562 241C562 384 452 494 312 494ZM312 47C204 47 127 133 127 241C127 348 204 436 312 436C421 436 498 349 498 241C498 132 421 47 312 47ZM215 573L215 644C215 665 222 675 237 675C252 675 259 667 274 654L314 617C341 594 359 578 392 578C439 578 461 610 461 661L461 736L409 736L409 665C409 644 402 634 387 634C374 634 365 640 350 655L310 692C283 715 265 731 232 731C185 731 163 699 163 648L163 573Z"  horiz-adv-x="624" vert-adv-y="1000"  />

      
      <glyph glyph-name="unif6" unicode="&#xf6;" d="M312 494C172 494 62 384 62 241C62 97 172-12 312-12C452-12 562 97 562 241C562 384 452 494 312 494ZM312 47C204 47 127 133 127 241C127 348 204 436 312 436C421 436 498 349 498 241C498 132 421 47 312 47ZM187 587L250 587L250 727L187 727ZM375 587L438 587L438 727L375 727Z"  horiz-adv-x="624" vert-adv-y="1000"  />

      
      <glyph glyph-name="unif7" unicode="&#xf7;" d="M312 453L387 453L387 590L312 590ZM605 287L605 344L92 344L92 287ZM312 30L387 30L387 168L312 168Z"  horiz-adv-x="696" vert-adv-y="1000"  />

      
      <glyph glyph-name="unif8" unicode="&#xf8;" d="M562 241C562 304 541 359 505 402L583 482L510 482L468 439C425 474 372 495 312 495C172 495 62 385 62 241C62 180 83 124 118 81L39 0L112 0L155 44C198 9 252-12 312-12C452-12 562 97 562 241ZM127 241C127 348 204 436 312 436C357 436 396 423 428 397L160 124C138 157 127 196 127 241ZM498 241C498 132 421 47 312 47C266 47 227 60 195 86L463 359C486 326 498 287 498 241Z"  horiz-adv-x="624" vert-adv-y="1000"  />

      
      <glyph glyph-name="unif9" unicode="&#xf9;" d="M314-12C449-12 534 77 534 204L534 482L471 482L471 213C471 113 413 48 313 48C213 48 156 113 156 213L156 482L93 482L93 204C93 77 175-12 314-12ZM347 577L242 750L173 750L283 577Z"  horiz-adv-x="626" vert-adv-y="1000"  />

      
      <glyph glyph-name="unifa" unicode="&#xfa;" d="M314-12C449-12 534 77 534 204L534 482L471 482L471 213C471 113 413 48 313 48C213 48 156 113 156 213L156 482L93 482L93 204C93 77 175-12 314-12ZM272 577L337 577L446 750L378 750Z"  horiz-adv-x="626" vert-adv-y="1000"  />

      
      <glyph glyph-name="unifb" unicode="&#xfb;" d="M314-12C449-12 534 77 534 204L534 482L471 482L471 213C471 113 413 48 313 48C213 48 156 113 156 213L156 482L93 482L93 204C93 77 175-12 314-12ZM398 574L459 574L338 757L287 757L165 574L227 574L313 701Z"  horiz-adv-x="626" vert-adv-y="1000"  />

      
      <glyph glyph-name="unifc" unicode="&#xfc;" d="M314-12C449-12 534 77 534 204L534 482L471 482L471 213C471 113 413 48 313 48C213 48 156 113 156 213L156 482L93 482L93 204C93 77 175-12 314-12ZM188 587L251 587L251 727L188 727ZM376 587L439 587L439 727L376 727Z"  horiz-adv-x="626" vert-adv-y="1000"  />

      
      <glyph glyph-name="uniff" unicode="&#xff;" d="M539 482L474 482L288 78L99 482L28 482L255 5L150-224L215-224ZM163 587L226 587L226 727L163 727ZM351 587L414 587L414 727L351 727Z"  horiz-adv-x="567" vert-adv-y="1000"  />

      
      <glyph glyph-name="uni0131" unicode="&#x0131;" d="M100 0L162 0L162 482L100 482Z"  horiz-adv-x="262" vert-adv-y="1000"  />

      
      <glyph glyph-name="uni0152" unicode="&#x0152;" d="M75 355C75 139 225 0 453 0L1134 0L1134 62L640 62L640 347L909 347L909 408L640 408L640 649L1094 649L1094 710L453 710C225 710 75 571 75 355ZM453 62C262 62 143 176 143 355C143 534 262 649 453 649L575 649L575 62Z"  horiz-adv-x="1177" vert-adv-y="1000"  />

      
      <glyph glyph-name="uni0153" unicode="&#x0153;" d="M895 129C882 109 841 47 735 47C623 47 551 137 551 241L551 243L901 243L963 242L963 243C963 388 865 495 726 495C622 495 552 436 520 359C484 440 403 495 307 495C169 495 62 385 62 241C62 97 169-12 307-12C406-12 482 41 517 120C549 50 627-12 735-12C883-12 946 89 957 129ZM307 47C203 47 127 133 127 241C127 348 203 436 307 436C413 436 488 348 488 241C488 133 413 47 307 47ZM726 439C817 439 876 382 895 295L556 295C573 379 634 439 726 439Z"  horiz-adv-x="1020" vert-adv-y="1000"  />

      
      <glyph glyph-name="uni0178" unicode="&#x0178;" d="M414 304L735 710L658 710L382 362L104 710L20 710L348 302L348 0L414 0ZM249 783L312 783L312 922L249 922ZM452 783L515 783L515 922L452 922Z"  horiz-adv-x="755" vert-adv-y="1000"  />

      
      <glyph glyph-name="uni0192" unicode="&#x0192;" d="M472 355L472 413L281 413L300 535C313 618 338 652 426 652L560 652L560 710L421 710C294 710 255 657 236 544L215 413L53 413L53 355L206 355L117-214L181-214L271 355Z"  horiz-adv-x="583" vert-adv-y="1000"  />

      
      <glyph glyph-name="uni02C6" unicode="&#x02C6;" d="M345 574L406 574L285 757L234 757L112 574L174 574L260 701Z"  horiz-adv-x="600" vert-adv-y="1000"  />

      
      <glyph glyph-name="uni02C7" unicode="&#x02C7;" d="M407 760L346 760L260 633L175 760L113 760L234 577L285 577Z"  horiz-adv-x="600" vert-adv-y="1000"  />

      
      <glyph glyph-name="uni02D8" unicode="&#x02D8;" d="M300 623C247 623 224 662 224 703L224 722L170 722L170 702C170 630 214 571 300 571C385 571 431 630 431 702L431 722L376 722L376 703C376 660 353 623 300 623Z"  horiz-adv-x="600" vert-adv-y="1000"  />

      
      <glyph glyph-name="uni02D9" unicode="&#x02D9;" d="M268 587L332 587L332 729L268 729Z"  horiz-adv-x="600" vert-adv-y="1000"  />

      
      <glyph glyph-name="uni02DA" unicode="&#x02DA;" d="M300 565C372 565 423 618 423 685C423 753 369 804 300 804C230 804 178 753 178 685C178 618 230 565 300 565ZM300 612C257 612 228 644 228 685C228 726 256 757 300 757C344 757 373 726 373 685C373 644 344 612 300 612Z"  horiz-adv-x="600" vert-adv-y="1000"  />

      
      <glyph glyph-name="uni02DB" unicode="&#x02DB;" d="M430-167L347-167C314-167 292-152 292-123C292-87 328-60 403 0L340 0C272-47 227-80 227-133C227-193 273-224 346-224L430-224Z"  horiz-adv-x="600" vert-adv-y="1000"  />

      
      <glyph glyph-name="uni02DC" unicode="&#x02DC;" d="M203 573L203 644C203 665 210 675 225 675C240 675 247 667 262 654L302 617C329 594 347 578 380 578C427 578 449 610 449 661L449 736L397 736L397 665C397 644 390 634 375 634C362 634 353 640 338 655L298 692C271 715 253 731 220 731C173 731 151 699 151 648L151 573Z"  horiz-adv-x="600" vert-adv-y="1000"  />

      
      <glyph glyph-name="uni02DD" unicode="&#x02DD;" d="M314 577L371 577L457 750L396 750ZM140 577L198 577L284 750L222 750Z"  horiz-adv-x="600" vert-adv-y="1000"  />

      
      <glyph glyph-name="uni2013" unicode="&#x2013;" d="M89 258L605 258L605 312L89 312Z"  horiz-adv-x="694" vert-adv-y="1000"  />

      
      <glyph glyph-name="uni2014" unicode="&#x2014;" d="M89 258L901 258L901 312L89 312Z"  horiz-adv-x="990" vert-adv-y="1000"  />

      
      <glyph glyph-name="uni2018" unicode="&#x2018;" d="M141 736C110 677 93 614 93 535L93 419L172 419L172 541L134 541C137 612 156 671 189 736Z"  horiz-adv-x="275" vert-adv-y="1000"  />

      
      <glyph glyph-name="uni2019" unicode="&#x2019;" d="M134 419C165 478 182 541 182 620L182 736L103 736L103 614L141 614C138 543 119 484 86 419Z"  horiz-adv-x="275" vert-adv-y="1000"  />

      
      <glyph glyph-name="uni201A" unicode="&#x201A;" d="M134-195C165-136 182-73 182 6L182 122L103 122L103 0L141 0C138-71 119-130 86-195Z"  horiz-adv-x="275" vert-adv-y="1000"  />

      
      <glyph glyph-name="uni201C" unicode="&#x201C;" d="M325 736C294 677 277 614 277 535L277 419L356 419L356 541L318 541C321 612 340 671 373 736ZM138 736C107 677 90 614 90 535L90 419L169 419L169 541L131 541C134 612 153 671 186 736Z"  horiz-adv-x="459" vert-adv-y="1000"  />

      
      <glyph glyph-name="uni201D" unicode="&#x201D;" d="M134 419C165 478 182 541 182 620L182 736L103 736L103 614L141 614C138 543 119 484 86 419ZM321 419C352 478 369 541 369 620L369 736L290 736L290 614L328 614C325 543 306 484 273 419Z"  horiz-adv-x="459" vert-adv-y="1000"  />

      
      <glyph glyph-name="uni201E" unicode="&#x201E;" d="M134-195C165-136 182-73 182 6L182 122L103 122L103 0L141 0C138-71 119-130 86-195ZM321-195C352-136 369-73 369 6L369 122L290 122L290 0L328 0C325-71 306-130 273-195Z"  horiz-adv-x="459" vert-adv-y="1000"  />

      
      <glyph glyph-name="uni2020" unicode="&#x2020;" d="M462 460L462 517L292 517L292 710L231 710L231 517L60 517L60 460L231 460L231 0L292 0L292 460Z"  horiz-adv-x="522" vert-adv-y="1000"  />

      
      <glyph glyph-name="uni2021" unicode="&#x2021;" d="M462 196L462 253L292 253L292 458L462 458L462 515L292 515L292 710L231 710L231 515L60 515L60 458L231 458L231 253L60 253L60 196L231 196L231 0L292 0L292 196Z"  horiz-adv-x="522" vert-adv-y="1000"  />

      
      <glyph glyph-name="uni2022" unicode="&#x2022;" d="M283 495C186 495 109 418 109 321C109 224 186 147 283 147C381 147 457 224 457 321C457 418 381 495 283 495Z"  horiz-adv-x="566" vert-adv-y="1000"  />

      
      <glyph glyph-name="uni2026" unicode="&#x2026;" d="M93 0L169 0L169 137L93 137ZM326 0L402 0L402 137L326 137ZM558 0L634 0L634 137L558 137Z"  horiz-adv-x="727" vert-adv-y="1000"  />

      
      <glyph glyph-name="uni2030" unicode="&#x2030;" d="M253 366C353 366 430 443 430 544C430 645 353 722 253 722C152 722 75 645 75 544C75 443 152 366 253 366ZM212 0L280 0L793 710L725 710ZM253 420C181 420 132 474 132 544C132 615 181 668 253 668C325 668 373 616 373 544C373 473 325 420 253 420ZM754-14C854-14 931 63 931 164C931 265 854 342 754 342C653 342 576 265 576 164C576 63 653-14 754-14ZM1187-14C1288-14 1365 63 1365 164C1365 265 1288 342 1187 342C1087 342 1010 265 1010 164C1010 63 1087-14 1187-14ZM754 40C682 40 633 94 633 164C633 235 682 288 754 288C826 288 874 236 874 164C874 93 826 40 754 40ZM1187 40C1115 40 1067 93 1067 164C1067 236 1115 288 1187 288C1259 288 1308 235 1308 164C1308 94 1259 40 1187 40Z"  horiz-adv-x="1440" vert-adv-y="1000"  />

      
      <glyph glyph-name="uni2039" unicode="&#x2039;" d="M257 451L193 451L70 275L192 100L257 100L134 276Z"  horiz-adv-x="332" vert-adv-y="1000"  />

      
      <glyph glyph-name="uni203A" unicode="&#x203A;" d="M262 275L140 451L75 451L198 275L75 100L139 100Z"  horiz-adv-x="332" vert-adv-y="1000"  />

      
      <glyph glyph-name="uni2044" unicode="&#x2044;" d="M72 0L518 710L453 710L8 0Z"  horiz-adv-x="525" vert-adv-y="1000"  />

      
      <glyph glyph-name="uni20AC" unicode="&#x20AC;" d="M564 217C563 116 509 50 402 50C298 50 238 118 238 226L238 247L437 247L437 302L238 302L238 416L437 416L437 471L238 471L238 485C238 586 294 662 400 662C512 662 559 588 564 500L630 500C625 640 540 722 400 722C263 722 174 638 174 485L174 471L53 471L53 416L174 416L174 302L53 302L53 247L174 247L174 226C174 69 267-11 401-11C537-11 626 66 630 217Z"  horiz-adv-x="710" vert-adv-y="1000"  />

      
      <glyph glyph-name="uni2122" unicode="&#x2122;" d="M35 658L187 658L187 314L244 314L244 658L396 658L396 710L35 710ZM572 710L483 710L483 314L537 314L537 658L682 312L721 312L865 655L865 314L922 314L922 710L834 710L703 397Z"  horiz-adv-x="1007" vert-adv-y="1000"  />

      
      <glyph glyph-name="uniFB01" unicode="&#xFB01;" d="M449 425L449 482L248 482L248 571C248 643 277 679 356 679L481 679L481 736L351 736C236 736 186 682 186 578L186 482L30 482L30 425L186 425L186 0L248 0L248 425ZM578 587L642 587L642 729L578 729ZM579 0L641 0L641 482L579 482Z"  horiz-adv-x="741" vert-adv-y="1000"  />

      
      <glyph glyph-name="uniFB02" unicode="&#xFB02;" d="M449 425L449 482L248 482L248 571C248 643 277 679 356 679L481 679L481 736L351 736C236 736 186 682 186 578L186 482L30 482L30 425L186 425L186 0L248 0L248 425ZM580 0L643 0L643 736L580 736Z"  horiz-adv-x="744" vert-adv-y="1000"  />

      
      <glyph glyph-name="uni22" unicode="&#x22;" d="M164 415L164 710L107 710L107 415ZM337 415L337 710L280 710L280 415Z"  horiz-adv-x="444" vert-adv-y="1000"  />

      
      <glyph glyph-name="uni21" unicode="&#x21;" d="M122 239L184 239L184 710L122 710ZM115 0L190 0L190 136L115 136Z"  horiz-adv-x="305" vert-adv-y="1000"  />

      
      <glyph glyph-name="uni23" unicode="&#x23;" d="M354 0L410 0L472 201L626 201L626 253L488 253L554 468L704 468L704 520L570 520L629 710L572 710L514 520L327 520L386 710L329 710L271 520L116 520L116 468L255 468L189 253L38 253L38 201L173 201L111 0L167 0L229 201L416 201ZM245 253L311 468L498 468L432 253Z"  horiz-adv-x="741" vert-adv-y="1000"  />

      
      <glyph glyph-name="unia6" unicode="&#xa6;" d="M125 427L184 427L184 822L125 822ZM125-116L184-116L184 292L125 292Z"  horiz-adv-x="309" vert-adv-y="1000"  />

      
      <glyph glyph-name="unibc" unicode="&#xbc;" d="M882 123L882 173L793 173L793 416L724 416L522 162L522 123L735 123L735 0L793 0L793 123ZM590 173L735 357L735 173ZM214 712L171 712L48 635L48 578L155 641L155 294L214 294ZM234 0L680 710L615 710L170 0Z"  horiz-adv-x="926" vert-adv-y="1000"  />

      
      <glyph glyph-name="unibd" unicode="&#xbd;" d="M214 712L171 712L48 635L48 578L155 641L155 294L214 294ZM233 0L679 710L614 710L169 0ZM874 54L668 54L756 138C812 188 849 231 849 296C849 368 799 423 711 423C626 423 575 366 575 287L575 265L632 265L632 286C632 335 663 369 711 369C759 369 789 338 789 294C789 250 764 221 719 177L575 38L575 0L874 0Z"  horiz-adv-x="918" vert-adv-y="1000"  />

      
      <glyph glyph-name="unibe" unicode="&#xbe;" d="M355 409C355 473 314 505 282 513C309 522 341 551 341 603C341 671 290 717 202 717C109 717 67 656 64 604L123 604C127 635 153 664 202 664C249 664 282 639 282 599C282 558 254 535 211 535L141 535L141 482L213 482C264 482 294 457 294 413C294 369 259 341 204 341C147 341 119 374 114 405L54 405C59 352 103 287 204 287C299 287 355 337 355 409ZM979 123L979 173L890 173L890 416L821 416L619 162L619 123L832 123L832 0L890 0L890 123ZM687 173L832 357L832 173ZM331 0L777 710L712 710L267 0Z"  horiz-adv-x="1023" vert-adv-y="1000"  />

      
      <glyph glyph-name="unid0" unicode="&#xd0;" d="M17 328L137 328L137 0L400 0C631 0 773 142 773 355C773 571 629 710 400 710L137 710L137 389L17 389ZM400 649C589 649 705 539 705 355C705 177 589 61 400 61L203 61L203 328L460 328L460 389L203 389L203 649Z"  horiz-adv-x="848" vert-adv-y="1000"  />

      
      <glyph glyph-name="unid7" unicode="&#xd7;" d="M548 105L360 296L548 485L508 524L321 335L135 524L93 482L281 294L93 105L133 67L320 255L508 67Z"  horiz-adv-x="640" vert-adv-y="1000"  />

      
      <glyph glyph-name="unidd" unicode="&#xdd;" d="M414 304L735 710L658 710L382 362L104 710L20 710L348 302L348 0L414 0ZM337 783L408 783L521 923L446 923Z"  horiz-adv-x="755" vert-adv-y="1000"  />

      
      <glyph glyph-name="unide" unicode="&#xde;" d="M484 174C627 174 703 249 703 365C703 484 627 554 484 554L181 554L181 710L115 710L115 0L181 0L181 174ZM485 493C585 493 635 447 635 364C635 285 585 236 485 236L181 236L181 493Z"  horiz-adv-x="768" vert-adv-y="1000"  />

      
      <glyph glyph-name="unif0" unicode="&#xf0;" d="M562 241C562 347 506 417 439 494L329 620L469 682L448 725L296 658L228 736L155 736L243 635L102 573L123 530L276 597L410 443C383 467 347 487 294 487C165 487 62 382 62 241C62 97 172-12 312-12C452-12 562 97 562 241ZM312 47C204 47 127 133 127 241C127 348 204 436 312 436C421 436 498 348 498 241C498 133 421 47 312 47Z"  horiz-adv-x="624" vert-adv-y="1000"  />

      
      <glyph glyph-name="unifd" unicode="&#xfd;" d="M539 482L474 482L288 78L99 482L28 482L255 5L150-224L215-224ZM246 577L311 577L420 750L352 750Z"  horiz-adv-x="567" vert-adv-y="1000"  />

      
      <glyph glyph-name="unife" unicode="&#xfe;" d="M161 101C174 72 232-12 353-12C490-12 593 92 593 241C593 390 490 494 353 494C234 494 172 409 161 379L161 736L99 736L99-224L161-224ZM160 241C160 348 235 435 344 435C456 435 529 348 529 241C529 134 456 48 344 48C235 48 160 134 160 241Z"  horiz-adv-x="656" vert-adv-y="1000"  />

      
      <glyph glyph-name="uni0141" unicode="&#x0141;" d="M672 62L197 62L197 280L487 440L487 504L197 343L197 710L131 710L131 307L22 247L22 184L131 244L131 0L672 0Z"  horiz-adv-x="711" vert-adv-y="1000"  />

      
      <glyph glyph-name="uni0142" unicode="&#x0142;" d="M24 272L139 336L139 0L202 0L202 371L317 436L317 500L202 434L202 736L139 736L139 398L24 333Z"  horiz-adv-x="341" vert-adv-y="1000"  />

      
      <glyph glyph-name="uni0160" unicode="&#x0160;" d="M339 661C493 661 558 588 582 543L650 543C628 616 545 722 339 722C183 722 77 650 77 534C77 417 170 359 295 346C345 341 381 338 435 330C546 317 601 279 601 191C601 104 514 49 386 49C218 49 147 133 123 189L52 189C82 100 172-13 386-13C566-13 667 75 667 194C667 327 569 379 441 395L302 411C196 424 143 465 143 534C143 614 216 661 339 661ZM527 926L458 926L360 827L262 926L195 926L334 780L386 780Z"  horiz-adv-x="742" vert-adv-y="1000"  />

      
      <glyph glyph-name="uni0161" unicode="&#x0161;" d="M321 215C409 206 433 176 433 131C433 79 383 44 291 44C176 44 134 104 120 126L54 126C70 78 133-13 291-13C423-13 496 50 496 131C496 215 445 262 328 275L238 284C167 292 131 318 131 361C131 408 177 440 261 440C361 440 406 393 422 372L489 372C470 420 410 495 261 495C148 495 69 443 69 360C69 275 137 233 230 225ZM422 760L361 760L275 633L190 760L128 760L249 577L300 577Z"  horiz-adv-x="556" vert-adv-y="1000"  />

      
      <glyph glyph-name="uni017D" unicode="&#x017D;" d="M720 62L156 62L667 671L667 710L65 710L65 649L566 649L55 38L55 0L720 0ZM534 926L465 926L367 827L269 926L202 926L341 780L393 780Z"  horiz-adv-x="765" vert-adv-y="1000"  />

      
      <glyph glyph-name="uni017E" unicode="&#x017E;" d="M553 57L152 57L516 448L516 482L66 482L66 426L417 426L56 36L56 0L553 0ZM436 760L375 760L289 633L204 760L142 760L263 577L314 577Z"  horiz-adv-x="597" vert-adv-y="1000"  />

      
      <glyph glyph-name="uni2212" unicode="&#x2212;" d="M602 287L602 344L89 344L89 287Z"  horiz-adv-x="691" vert-adv-y="1000"  />

      
      <glyph glyph-name="uni0110" unicode="&#x0110;" d="M17 328L137 328L137 0L400 0C631 0 773 142 773 355C773 571 629 710 400 710L137 710L137 389L17 389ZM400 649C589 649 705 539 705 355C705 177 589 61 400 61L203 61L203 328L460 328L460 389L203 389L203 649Z"  horiz-adv-x="848" vert-adv-y="1000"  />

      
      <glyph glyph-name="uni014A" unicode="&#x014A;" d="M740 710L677 710L677 93C670 104 663 114 654 124L201 710L120 710L120 0L184 0L184 630L611 79C656 20 677-14 677-57C677-128 637-163 556-163L460-163L460-224L566-224C682-224 740-168 740-57Z"  horiz-adv-x="860" vert-adv-y="1000"  />

      
      <glyph glyph-name="uni0132" unicode="&#x0132;" d="M117 0L182 0L182 710L117 710ZM840 710L774 710L774 217C774 114 719 52 616 52C519 52 458 114 458 217L458 407L393 407L393 217C393 68 485-11 616-11C750-11 840 69 840 217Z"  horiz-adv-x="952" vert-adv-y="1000"  />

      
      <glyph glyph-name="uni0111" unicode="&#x0111;" d="M495 0L558 0L558 580L661 580L661 633L558 633L558 736L495 736L495 633L266 633L266 580L495 580L495 381C482 412 425 494 304 494C167 494 63 390 63 241C63 92 167-12 304-12C425-12 482 74 495 106ZM497 241C497 134 422 47 313 47C201 47 128 134 128 241C128 349 201 435 313 435C422 435 497 349 497 241Z"  horiz-adv-x="657" vert-adv-y="1000"  />

      
      <glyph glyph-name="uni014B" unicode="&#x014B;" d="M545 273C545 402 459 494 335 494C242 494 180 430 162 380L162 482L99 482L99 0L162 0L162 262C162 366 230 435 322 435C418 435 482 369 482 262L482-43C482-124 450-165 373-165L263-165L263-224L380-224C493-224 545-168 545-48Z"  horiz-adv-x="638" vert-adv-y="1000"  />

      
      <glyph glyph-name="uni0133" unicode="&#x0133;" d="M99 587L163 587L163 729L99 729ZM100 0L162 0L162 482L100 482ZM361 587L425 587L425 729L361 729ZM424 482L362 482L362-48C362-128 332-165 257-165L142-165L142-224L265-224C374-224 424-170 424-53Z"  horiz-adv-x="523" vert-adv-y="1000"  />

      
      <glyph glyph-name="uni0102" unicode="&#x0102;" d="M681 0L750 0L419 714L368 714L38 0L104 0L196 200L588 200ZM224 260L392 624L561 260ZM393 828C336 828 310 870 310 915L310 926L256 926L256 914C256 837 302 776 393 776C483 776 531 837 531 914L531 926L476 926L476 915C476 868 450 828 393 828Z"  horiz-adv-x="788" vert-adv-y="1000"  />

      
      <glyph glyph-name="uni0100" unicode="&#x0100;" d="M681 0L750 0L419 714L368 714L38 0L104 0L196 200L588 200ZM224 260L392 624L561 260ZM550 819L550 874L236 874L236 819Z"  horiz-adv-x="788" vert-adv-y="1000"  />

      
      <glyph glyph-name="uni0104" unicode="&#x0104;" d="M681 0C614-45 574-81 574-133C574-193 620-224 693-224L777-224L777-167L695-167C660-167 639-152 639-123C639-84 677-62 750 0L419 714L368 714L38 0L104 0L196 200L588 200ZM224 260L392 624L561 260Z"  horiz-adv-x="788" vert-adv-y="1000"  />

      
      <glyph glyph-name="uni01FA" unicode="&#x01FA;" d="M681 0L750 0L419 714L368 714L38 0L104 0L196 200L588 200ZM224 260L392 624L561 260ZM361 1061L428 1061L531 1191L460 1191ZM393 776C465 776 516 829 516 896C516 964 462 1015 393 1015C323 1015 271 964 271 896C271 829 323 776 393 776ZM393 823C350 823 321 855 321 896C321 937 349 968 393 968C437 968 466 937 466 896C466 855 437 823 393 823Z"  horiz-adv-x="788" vert-adv-y="1000"  />

      
      <glyph glyph-name="uni01FC" unicode="&#x01FC;" d="M1112 62L618 62L618 347L887 347L887 408L618 408L618 649L1072 649L1072 710L523 710L5 0L80 0L223 197L553 197L553 0L1112 0ZM266 256L553 651L553 256ZM756 783L827 783L940 923L865 923Z"  horiz-adv-x="1155" vert-adv-y="1000"  />

      
      <glyph glyph-name="uni0106" unicode="&#x0106;" d="M420-12C624-12 715 123 739 195L671 195C644 144 576 51 420 51C252 51 143 188 143 355C143 520 253 660 420 660C567 660 644 566 670 516L739 516C715 589 619 722 420 722C220 722 74 559 74 355C74 150 220-12 420-12ZM386 783L457 783L570 923L495 923Z"  horiz-adv-x="806" vert-adv-y="1000"  />

      
      <glyph glyph-name="uni010C" unicode="&#x010C;" d="M420-12C624-12 715 123 739 195L671 195C644 144 576 51 420 51C252 51 143 188 143 355C143 520 253 660 420 660C567 660 644 566 670 516L739 516C715 589 619 722 420 722C220 722 74 559 74 355C74 150 220-12 420-12ZM587 926L518 926L420 827L322 926L255 926L394 780L446 780Z"  horiz-adv-x="806" vert-adv-y="1000"  />

      
      <glyph glyph-name="uni0108" unicode="&#x0108;" d="M420-12C624-12 715 123 739 195L671 195C644 144 576 51 420 51C252 51 143 188 143 355C143 520 253 660 420 660C567 660 644 566 670 516L739 516C715 589 619 722 420 722C220 722 74 559 74 355C74 150 220-12 420-12ZM519 780L586 780L447 926L394 926L254 780L323 780L421 879Z"  horiz-adv-x="806" vert-adv-y="1000"  />

      
      <glyph glyph-name="uni010A" unicode="&#x010A;" d="M420-12C624-12 715 123 739 195L671 195C644 144 576 51 420 51C252 51 143 188 143 355C143 520 253 660 420 660C567 660 644 566 670 516L739 516C715 589 619 722 420 722C220 722 74 559 74 355C74 150 220-12 420-12ZM388 783L452 783L452 925L388 925Z"  horiz-adv-x="806" vert-adv-y="1000"  />

      
      <glyph glyph-name="uni010E" unicode="&#x010E;" d="M115 0L378 0C609 0 751 142 751 355C751 571 607 710 378 710L115 710ZM378 649C567 649 683 539 683 355C683 177 567 61 378 61L181 61L181 649ZM554 926L485 926L387 827L289 926L222 926L361 780L413 780Z"  horiz-adv-x="826" vert-adv-y="1000"  />

      
      <glyph glyph-name="uni0114" unicode="&#x0114;" d="M115 0L696 0L696 62L181 62L181 347L471 347L471 408L181 408L181 649L656 649L656 710L115 710ZM393 828C336 828 310 870 310 915L310 926L256 926L256 914C256 837 302 776 393 776C483 776 531 837 531 914L531 926L476 926L476 915C476 868 450 828 393 828Z"  horiz-adv-x="739" vert-adv-y="1000"  />

      
      <glyph glyph-name="uni011A" unicode="&#x011A;" d="M115 0L696 0L696 62L181 62L181 347L471 347L471 408L181 408L181 649L656 649L656 710L115 710ZM560 926L491 926L393 827L295 926L228 926L367 780L419 780Z"  horiz-adv-x="739" vert-adv-y="1000"  />

      
      <glyph glyph-name="uni0116" unicode="&#x0116;" d="M115 0L696 0L696 62L181 62L181 347L471 347L471 408L181 408L181 649L656 649L656 710L115 710ZM361 783L425 783L425 925L361 925Z"  horiz-adv-x="739" vert-adv-y="1000"  />

      
      <glyph glyph-name="uni0112" unicode="&#x0112;" d="M115 0L696 0L696 62L181 62L181 347L471 347L471 408L181 408L181 649L656 649L656 710L115 710ZM550 819L550 874L236 874L236 819Z"  horiz-adv-x="739" vert-adv-y="1000"  />

      
      <glyph glyph-name="uni0118" unicode="&#x0118;" d="M115 0L696 0L696 62L181 62L181 347L471 347L471 408L181 408L181 649L656 649L656 710L115 710ZM606-167L523-167C490-167 468-152 468-123C468-87 504-60 579 0L516 0C448-47 403-80 403-133C403-193 449-224 522-224L606-224Z"  horiz-adv-x="739" vert-adv-y="1000"  />

      
      <glyph glyph-name="uni011E" unicode="&#x011E;" d="M748 385L391 385L391 325L685 325L685 117C645 88 568 50 447 50C268 50 142 173 142 356C142 525 256 660 428 660C567 660 635 591 662 553L730 553C703 617 614 722 428 722C226 722 74 564 74 356C74 141 227-12 447-12C600-12 695 44 748 91ZM428 828C371 828 345 870 345 915L345 926L291 926L291 914C291 837 337 776 428 776C518 776 566 837 566 914L566 926L511 926L511 915C511 868 485 828 428 828Z"  horiz-adv-x="842" vert-adv-y="1000"  />

      
      <glyph glyph-name="uni011C" unicode="&#x011C;" d="M748 385L391 385L391 325L685 325L685 117C645 88 568 50 447 50C268 50 142 173 142 356C142 525 256 660 428 660C567 660 635 591 662 553L730 553C703 617 614 722 428 722C226 722 74 564 74 356C74 141 227-12 447-12C600-12 695 44 748 91ZM527 780L594 780L455 926L402 926L262 780L331 780L429 879Z"  horiz-adv-x="842" vert-adv-y="1000"  />

      
      <glyph glyph-name="uni0122" unicode="&#x0122;" d="M748 385L391 385L391 325L685 325L685 117C645 88 568 50 447 50C268 50 142 173 142 356C142 525 256 660 428 660C567 660 635 591 662 553L730 553C703 617 614 722 428 722C226 722 74 564 74 356C74 141 227-12 447-12C600-12 695 44 748 91ZM461-320C478-277 488-232 488-171L488-100L411-100L411-205L448-205C445-237 435-280 416-320Z"  horiz-adv-x="842" vert-adv-y="1000"  />

      
      <glyph glyph-name="uni0120" unicode="&#x0120;" d="M748 385L391 385L391 325L685 325L685 117C645 88 568 50 447 50C268 50 142 173 142 356C142 525 256 660 428 660C567 660 635 591 662 553L730 553C703 617 614 722 428 722C226 722 74 564 74 356C74 141 227-12 447-12C600-12 695 44 748 91ZM396 783L460 783L460 925L396 925Z"  horiz-adv-x="842" vert-adv-y="1000"  />

      
      <glyph glyph-name="uni0126" unicode="&#x0126;" d="M659 0L725 0L725 520L825 520L825 575L725 575L725 710L659 710L659 575L181 575L181 710L115 710L115 575L15 575L15 520L115 520L115 0L181 0L181 328L659 328ZM181 389L181 520L659 520L659 389Z"  horiz-adv-x="840" vert-adv-y="1000"  />

      
      <glyph glyph-name="uni0124" unicode="&#x0124;" d="M659 0L725 0L725 710L659 710L659 389L181 389L181 710L115 710L115 0L181 0L181 328L659 328ZM519 780L586 780L447 926L394 926L254 780L323 780L421 879Z"  horiz-adv-x="840" vert-adv-y="1000"  />

      
      <glyph glyph-name="uni012C" unicode="&#x012C;" d="M117 0L182 0L182 710L117 710ZM149 828C92 828 66 870 66 915L66 926L12 926L12 914C12 837 58 776 149 776C239 776 287 837 287 914L287 926L232 926L232 915C232 868 206 828 149 828Z"  horiz-adv-x="299" vert-adv-y="1000"  />

      
      <glyph glyph-name="uni0130" unicode="&#x0130;" d="M117 0L182 0L182 710L117 710ZM117 783L181 783L181 925L117 925Z"  horiz-adv-x="299" vert-adv-y="1000"  />

      
      <glyph glyph-name="uni012A" unicode="&#x012A;" d="M117 0L182 0L182 710L117 710ZM306 819L306 874L-8 874L-8 819Z"  horiz-adv-x="299" vert-adv-y="1000"  />

      
      <glyph glyph-name="uni012E" unicode="&#x012E;" d="M117 0C51-45 6-79 6-133C6-193 52-224 125-224L209-224L209-167L127-167C92-167 71-152 71-123C71-87 107-60 182 0L182 710L117 710Z"  horiz-adv-x="299" vert-adv-y="1000"  />

      
      <glyph glyph-name="uni0128" unicode="&#x0128;" d="M117 0L182 0L182 710L117 710ZM155 820C186 801 205 786 238 786C285 786 306 819 306 868L306 933L253 933L253 873C253 852 246 842 231 842C216 842 206 849 189 861L143 891C112 910 92 926 60 926C13 926-7 894-7 843L-7 778L45 778L45 839C45 858 52 870 67 870C80 870 93 862 110 851Z"  horiz-adv-x="299" vert-adv-y="1000"  />

      
      <glyph glyph-name="uni0134" unicode="&#x0134;" d="M541 710L475 710L475 217C475 114 420 52 317 52C220 52 159 114 159 217L159 407L94 407L94 217C94 68 186-11 317-11C451-11 541 69 541 217ZM606 780L673 780L534 926L481 926L341 780L410 780L508 879Z"  horiz-adv-x="653" vert-adv-y="1000"  />

      
      <glyph glyph-name="uni0136" unicode="&#x0136;" d="M660 0L756 0L258 360L738 710L642 710L181 374L181 710L115 710L115 0L181 0L181 338ZM421-320C438-277 448-232 448-171L448-100L371-100L371-205L408-205C405-237 395-280 376-320Z"  horiz-adv-x="770" vert-adv-y="1000"  />

      
      <glyph glyph-name="uni0139" unicode="&#x0139;" d="M656 62L181 62L181 710L115 710L115 0L656 0ZM114 783L185 783L298 923L223 923Z"  horiz-adv-x="695" vert-adv-y="1000"  />

      
      <glyph glyph-name="uni013D" unicode="&#x013D;" d="M656 62L181 62L181 710L115 710L115 0L656 0ZM257 577L312 577L368 760L310 760Z"  horiz-adv-x="696" vert-adv-y="1000"  />

      
      <glyph glyph-name="uni013B" unicode="&#x013B;" d="M656 62L181 62L181 710L115 710L115 0L656 0ZM405-320C422-277 432-232 432-171L432-100L355-100L355-205L392-205C389-237 379-280 360-320Z"  horiz-adv-x="695" vert-adv-y="1000"  />

      
      <glyph glyph-name="uni013F" unicode="&#x013F;" d="M656 62L181 62L181 710L115 710L115 0L656 0ZM459 314L535 314L535 451L459 451Z"  horiz-adv-x="696" vert-adv-y="1000"  />

      
      <glyph glyph-name="uni0143" unicode="&#x0143;" d="M735 710L672 710L672 114L196 710L115 710L115 0L179 0L179 632L690-5L735-5ZM401 783L472 783L585 923L510 923Z"  horiz-adv-x="850" vert-adv-y="1000"  />

      
      <glyph glyph-name="uni0147" unicode="&#x0147;" d="M735 710L672 710L672 114L196 710L115 710L115 0L179 0L179 632L690-5L735-5ZM603 926L534 926L436 827L338 926L271 926L410 780L462 780Z"  horiz-adv-x="850" vert-adv-y="1000"  />

      
      <glyph glyph-name="uni0145" unicode="&#x0145;" d="M735 710L672 710L672 114L196 710L115 710L115 0L179 0L179 632L690-5L735-5ZM442-320C459-277 469-232 469-171L469-100L392-100L392-205L429-205C426-237 416-280 397-320Z"  horiz-adv-x="850" vert-adv-y="1000"  />

      
      <glyph glyph-name="uni014E" unicode="&#x014E;" d="M436-12C643-12 798 150 798 355C798 560 643 722 436 722C228 722 74 560 74 355C74 150 228-12 436-12ZM436 50C260 50 142 187 142 355C142 520 259 660 436 660C613 660 730 519 730 355C730 190 612 50 436 50ZM436 828C379 828 353 870 353 915L353 926L299 926L299 914C299 837 345 776 436 776C526 776 574 837 574 914L574 926L519 926L519 915C519 868 493 828 436 828Z"  horiz-adv-x="872" vert-adv-y="1000"  />

      
      <glyph glyph-name="uni0150" unicode="&#x0150;" d="M436-12C643-12 798 150 798 355C798 560 643 722 436 722C228 722 74 560 74 355C74 150 228-12 436-12ZM436 50C260 50 142 187 142 355C142 520 259 660 436 660C613 660 730 519 730 355C730 190 612 50 436 50ZM490 783L550 783L634 923L570 923ZM316 783L376 783L460 923L396 923Z"  horiz-adv-x="872" vert-adv-y="1000"  />

      
      <glyph glyph-name="uni014C" unicode="&#x014C;" d="M436-12C643-12 798 150 798 355C798 560 643 722 436 722C228 722 74 560 74 355C74 150 228-12 436-12ZM436 50C260 50 142 187 142 355C142 520 259 660 436 660C613 660 730 519 730 355C730 190 612 50 436 50ZM593 819L593 874L279 874L279 819Z"  horiz-adv-x="872" vert-adv-y="1000"  />

      
      <glyph glyph-name="uni01FE" unicode="&#x01FE;" d="M798 355C798 451 764 539 705 604L803 710L725 710L663 643C602 694 524 722 436 722C228 722 74 560 74 355C74 258 108 171 167 106L69 0L146 0L208 67C269 16 348-12 436-12C643-12 798 150 798 355ZM142 355C142 520 259 660 436 660C509 660 572 636 620 597L211 153C167 208 142 276 142 355ZM730 355C730 190 612 50 436 50C363 50 300 74 251 113L661 556C705 501 730 431 730 355ZM402 783L473 783L586 923L511 923Z"  horiz-adv-x="872" vert-adv-y="1000"  />

      
      <glyph glyph-name="uni0154" unicode="&#x0154;" d="M115 0L181 0L181 332L478 332L663 0L733 0L548 338C651 357 706 424 706 519C706 639 629 710 484 710L115 710ZM482 649C586 649 638 600 638 519C638 440 586 393 482 393L181 393L181 649ZM357 783L428 783L541 923L466 923Z"  horiz-adv-x="792" vert-adv-y="1000"  />

      
      <glyph glyph-name="uni0158" unicode="&#x0158;" d="M115 0L181 0L181 332L478 332L663 0L733 0L548 338C651 357 706 424 706 519C706 639 629 710 484 710L115 710ZM482 649C586 649 638 600 638 519C638 440 586 393 482 393L181 393L181 649ZM556 926L487 926L389 827L291 926L224 926L363 780L415 780Z"  horiz-adv-x="792" vert-adv-y="1000"  />

      
      <glyph glyph-name="uni0156" unicode="&#x0156;" d="M115 0L181 0L181 332L478 332L663 0L733 0L548 338C651 357 706 424 706 519C706 639 629 710 484 710L115 710ZM482 649C586 649 638 600 638 519C638 440 586 393 482 393L181 393L181 649ZM413-320C430-277 440-232 440-171L440-100L363-100L363-205L400-205C397-237 387-280 368-320Z"  horiz-adv-x="792" vert-adv-y="1000"  />

      
      <glyph glyph-name="uni015A" unicode="&#x015A;" d="M339 661C493 661 558 588 582 543L650 543C628 616 545 722 339 722C183 722 77 650 77 534C77 417 170 359 295 346C345 341 381 338 435 330C546 317 601 279 601 191C601 104 514 49 386 49C218 49 147 133 123 189L52 189C82 100 172-13 386-13C566-13 667 75 667 194C667 327 569 379 441 395L302 411C196 424 143 465 143 534C143 614 216 661 339 661ZM325 783L396 783L509 923L434 923Z"  horiz-adv-x="742" vert-adv-y="1000"  />

      
      <glyph glyph-name="uni015E" unicode="&#x015E;" d="M339 661C493 661 558 588 582 543L650 543C628 616 545 722 339 722C183 722 77 650 77 534C77 417 170 359 295 346C345 341 381 338 435 330C546 317 601 279 601 191C601 104 514 49 386 49C218 49 147 133 123 189L52 189C82 100 172-13 386-13C566-13 667 75 667 194C667 327 569 379 441 395L302 411C196 424 143 465 143 534C143 614 216 661 339 661ZM433-161C433-192 415-207 378-207L260-207L260-260L384-260C460-260 494-217 494-161C494-105 461-66 382-66L359-66L359 0L302 0L302-116L378-116C415-116 433-133 433-161Z"  horiz-adv-x="742" vert-adv-y="1000"  />

      
      <glyph glyph-name="uni015C" unicode="&#x015C;" d="M339 661C493 661 558 588 582 543L650 543C628 616 545 722 339 722C183 722 77 650 77 534C77 417 170 359 295 346C345 341 381 338 435 330C546 317 601 279 601 191C601 104 514 49 386 49C218 49 147 133 123 189L52 189C82 100 172-13 386-13C566-13 667 75 667 194C667 327 569 379 441 395L302 411C196 424 143 465 143 534C143 614 216 661 339 661ZM458 780L525 780L386 926L333 926L193 780L262 780L360 879Z"  horiz-adv-x="742" vert-adv-y="1000"  />

      
      <glyph glyph-name="uni0218" unicode="&#x0218;" d="M339 661C493 661 558 588 582 543L650 543C628 616 545 722 339 722C183 722 77 650 77 534C77 417 170 359 295 346C345 341 381 338 435 330C546 317 601 279 601 191C601 104 514 49 386 49C218 49 147 133 123 189L52 189C82 100 172-13 386-13C566-13 667 75 667 194C667 327 569 379 441 395L302 411C196 424 143 465 143 534C143 614 216 661 339 661ZM396-320C413-277 423-232 423-171L423-100L346-100L346-205L383-205C380-237 370-280 351-320Z"  horiz-adv-x="742" vert-adv-y="1000"  />

      
      <glyph glyph-name="uni0164" unicode="&#x0164;" d="M40 649L351 649L351 0L417 0L417 649L727 649L727 710L40 710ZM550 926L481 926L383 827L285 926L218 926L357 780L409 780Z"  horiz-adv-x="767" vert-adv-y="1000"  />

      
      <glyph glyph-name="uni0162" unicode="&#x0162;" d="M40 649L351 649L351 0L417 0L417 649L727 649L727 710L40 710ZM396-320C413-277 423-232 423-171L423-100L346-100L346-205L383-205C380-237 370-280 351-320Z"  horiz-adv-x="767" vert-adv-y="1000"  />

      
      <glyph glyph-name="uni021A" unicode="&#x021A;" d="M40 649L351 649L351 0L417 0L417 649L727 649L727 710L40 710ZM396-320C413-277 423-232 423-171L423-100L346-100L346-205L383-205C380-237 370-280 351-320Z"  horiz-adv-x="767" vert-adv-y="1000"  />

      
      <glyph glyph-name="uni0166" unicode="&#x0166;" d="M140 351L351 351L351 0L417 0L417 351L627 351L627 410L417 410L417 649L727 649L727 710L40 710L40 649L351 649L351 410L140 410Z"  horiz-adv-x="767" vert-adv-y="1000"  />

      
      <glyph glyph-name="uni016C" unicode="&#x016C;" d="M416 52C261 52 178 152 178 304L178 710L112 710L112 300C112 124 210-12 416-12C617-12 720 127 720 300L720 710L654 710L654 304C654 155 568 52 416 52ZM416 828C359 828 333 870 333 915L333 926L279 926L279 914C279 837 325 776 416 776C506 776 554 837 554 914L554 926L499 926L499 915C499 868 473 828 416 828Z"  horiz-adv-x="832" vert-adv-y="1000"  />

      
      <glyph glyph-name="uni0170" unicode="&#x0170;" d="M416 52C261 52 178 152 178 304L178 710L112 710L112 300C112 124 210-12 416-12C617-12 720 127 720 300L720 710L654 710L654 304C654 155 568 52 416 52ZM470 783L530 783L614 923L550 923ZM296 783L356 783L440 923L376 923Z"  horiz-adv-x="832" vert-adv-y="1000"  />

      
      <glyph glyph-name="uni016A" unicode="&#x016A;" d="M416 52C261 52 178 152 178 304L178 710L112 710L112 300C112 124 210-12 416-12C617-12 720 127 720 300L720 710L654 710L654 304C654 155 568 52 416 52ZM573 819L573 874L259 874L259 819Z"  horiz-adv-x="832" vert-adv-y="1000"  />

      
      <glyph glyph-name="uni0172" unicode="&#x0172;" d="M585-167L504-167C469-167 447-151 447-122C447-78 503-48 595 31C666 89 720 176 720 300L720 710L654 710L654 304C654 155 568 52 416 52C261 52 178 152 178 304L178 710L112 710L112 300C112 124 210-12 416-12C443-12 469-9 492-3C428-44 382-81 382-133C382-193 428-224 501-224L585-224Z"  horiz-adv-x="832" vert-adv-y="1000"  />

      
      <glyph glyph-name="uni016E" unicode="&#x016E;" d="M416 52C261 52 178 152 178 304L178 710L112 710L112 300C112 124 210-12 416-12C617-12 720 127 720 300L720 710L654 710L654 304C654 155 568 52 416 52ZM416 776C488 776 539 829 539 896C539 964 485 1015 416 1015C346 1015 294 964 294 896C294 829 346 776 416 776ZM416 823C373 823 344 855 344 896C344 937 372 968 416 968C460 968 489 937 489 896C489 855 460 823 416 823Z"  horiz-adv-x="832" vert-adv-y="1000"  />

      
      <glyph glyph-name="uni0168" unicode="&#x0168;" d="M416 52C261 52 178 152 178 304L178 710L112 710L112 300C112 124 210-12 416-12C617-12 720 127 720 300L720 710L654 710L654 304C654 155 568 52 416 52ZM422 820C453 801 472 786 505 786C552 786 573 819 573 868L573 933L520 933L520 873C520 852 513 842 498 842C483 842 473 849 456 861L410 891C379 910 359 926 327 926C280 926 260 894 260 843L260 778L312 778L312 839C312 858 319 870 334 870C347 870 360 862 377 851Z"  horiz-adv-x="832" vert-adv-y="1000"  />

      
      <glyph glyph-name="uni1E82" unicode="&#x1E82;" d="M778-4L833-4L1072 710L1008 710L805 103L589 714L537 714L326 105L119 710L48 710L297-4L349-4L562 601ZM527 783L598 783L711 923L636 923Z"  horiz-adv-x="1120" vert-adv-y="1000"  />

      
      <glyph glyph-name="uni0174" unicode="&#x0174;" d="M778-4L833-4L1072 710L1008 710L805 103L589 714L537 714L326 105L119 710L48 710L297-4L349-4L562 601ZM660 780L727 780L588 926L535 926L395 780L464 780L562 879Z"  horiz-adv-x="1120" vert-adv-y="1000"  />

      
      <glyph glyph-name="uni1E84" unicode="&#x1E84;" d="M778-4L833-4L1072 710L1008 710L805 103L589 714L537 714L326 105L119 710L48 710L297-4L349-4L562 601ZM429 783L492 783L492 922L429 922ZM632 783L695 783L695 922L632 922Z"  horiz-adv-x="1120" vert-adv-y="1000"  />

      
      <glyph glyph-name="uni1E80" unicode="&#x1E80;" d="M778-4L833-4L1072 710L1008 710L805 103L589 714L537 714L326 105L119 710L48 710L297-4L349-4L562 601ZM598 783L489 923L413 923L527 783Z"  horiz-adv-x="1120" vert-adv-y="1000"  />

      
      <glyph glyph-name="uni0176" unicode="&#x0176;" d="M414 304L735 710L658 710L382 362L104 710L20 710L348 302L348 0L414 0ZM481 780L548 780L409 926L356 926L216 780L285 780L383 879Z"  horiz-adv-x="755" vert-adv-y="1000"  />

      
      <glyph glyph-name="uni1EF2" unicode="&#x1EF2;" d="M414 304L735 710L658 710L382 362L104 710L20 710L348 302L348 0L414 0ZM429 783L320 923L244 923L358 783Z"  horiz-adv-x="755" vert-adv-y="1000"  />

      
      <glyph glyph-name="uni0179" unicode="&#x0179;" d="M720 62L156 62L667 671L667 710L65 710L65 649L566 649L55 38L55 0L720 0ZM326 783L397 783L510 923L435 923Z"  horiz-adv-x="765" vert-adv-y="1000"  />

      
      <glyph glyph-name="uni017B" unicode="&#x017B;" d="M720 62L156 62L667 671L667 710L65 710L65 649L566 649L55 38L55 0L720 0ZM335 783L399 783L399 925L335 925Z"  horiz-adv-x="765" vert-adv-y="1000"  />

      
      <glyph glyph-name="uni0103" unicode="&#x0103;" d="M487 0L550 0L550 482L487 482L487 381C476 410 418 494 300 494C168 494 63 390 63 241C63 92 168-12 300-12C420-12 474 72 487 104ZM489 241C489 135 416 47 309 47C201 47 128 135 128 241C128 348 201 435 309 435C416 435 489 348 489 241ZM309 623C256 623 233 662 233 703L233 722L179 722L179 702C179 630 223 571 309 571C394 571 440 630 440 702L440 722L385 722L385 703C385 660 362 623 309 623Z"  horiz-adv-x="649" vert-adv-y="1000"  />

      
      <glyph glyph-name="uni0101" unicode="&#x0101;" d="M487 0L550 0L550 482L487 482L487 381C476 410 418 494 300 494C168 494 63 390 63 241C63 92 168-12 300-12C420-12 474 72 487 104ZM489 241C489 135 416 47 309 47C201 47 128 135 128 241C128 348 201 435 309 435C416 435 489 348 489 241ZM454 620L454 675L164 675L164 620Z"  horiz-adv-x="649" vert-adv-y="1000"  />

      
      <glyph glyph-name="uni0105" unicode="&#x0105;" d="M487 0C420-46 374-79 374-133C374-193 420-224 493-224L577-224L577-167L494-167C461-167 439-152 439-123C439-87 475-60 550 0L550 482L487 482L487 381C476 410 418 494 300 494C168 494 63 390 63 241C63 92 168-12 300-12C420-12 474 72 487 104ZM489 241C489 135 416 47 309 47C201 47 128 135 128 241C128 348 201 435 309 435C416 435 489 348 489 241Z"  horiz-adv-x="649" vert-adv-y="1000"  />

      
      <glyph glyph-name="uni01FB" unicode="&#x01FB;" d="M487 0L550 0L550 482L487 482L487 381C476 410 418 494 300 494C168 494 63 390 63 241C63 92 168-12 300-12C420-12 474 72 487 104ZM489 241C489 135 416 47 309 47C201 47 128 135 128 241C128 348 201 435 309 435C416 435 489 348 489 241ZM276 851L340 851L436 991L368 991ZM305 564C377 564 428 617 428 684C428 752 374 803 305 803C235 803 183 752 183 684C183 617 235 564 305 564ZM305 611C262 611 233 643 233 684C233 725 261 756 305 756C349 756 378 725 378 684C378 643 349 611 305 611Z"  horiz-adv-x="649" vert-adv-y="1000"  />

      
      <glyph glyph-name="uni01FD" unicode="&#x01FD;" d="M827 129C813 107 774 47 666 47C555 47 483 137 483 241L483 243L833 243L895 242L895 243C895 389 797 495 658 495C566 495 495 446 462 382C438 449 374 495 275 495C153 495 91 416 77 362L141 362C149 386 189 438 275 438C363 438 423 388 424 295L250 295C133 295 63 245 63 150C63 49 151-12 263-12C376-12 434 61 450 119C482 48 561-12 666-12C815-12 878 89 889 129ZM126 150C126 213 173 243 252 243L424 243L424 187C424 98 351 43 263 43C188 43 126 81 126 150ZM657 439C749 439 808 382 827 295L488 295C505 379 565 439 657 439ZM425 577L490 577L599 750L531 750Z"  horiz-adv-x="946" vert-adv-y="1000"  />

      
      <glyph glyph-name="uni0107" unicode="&#x0107;" d="M528 340C515 388 455 494 302 494C167 494 62 385 62 241C62 98 166-12 303-12C460-12 515 100 528 142L466 142C453 114 409 47 303 47C200 47 127 133 127 241C127 348 200 436 302 436C400 436 449 372 465 340ZM265 577L330 577L439 750L371 750Z"  horiz-adv-x="584" vert-adv-y="1000"  />

      
      <glyph glyph-name="uni010D" unicode="&#x010D;" d="M528 340C515 388 455 494 302 494C167 494 62 385 62 241C62 98 166-12 303-12C460-12 515 100 528 142L466 142C453 114 409 47 303 47C200 47 127 133 127 241C127 348 200 436 302 436C400 436 449 372 465 340ZM449 760L388 760L302 633L217 760L155 760L276 577L327 577Z"  horiz-adv-x="584" vert-adv-y="1000"  />

      
      <glyph glyph-name="uni0109" unicode="&#x0109;" d="M528 340C515 388 455 494 302 494C167 494 62 385 62 241C62 98 166-12 303-12C460-12 515 100 528 142L466 142C453 114 409 47 303 47C200 47 127 133 127 241C127 348 200 436 302 436C400 436 449 372 465 340ZM387 574L448 574L327 757L276 757L154 574L216 574L302 701Z"  horiz-adv-x="584" vert-adv-y="1000"  />

      
      <glyph glyph-name="uni010B" unicode="&#x010B;" d="M528 340C515 388 455 494 302 494C167 494 62 385 62 241C62 98 166-12 303-12C460-12 515 100 528 142L466 142C453 114 409 47 303 47C200 47 127 133 127 241C127 348 200 436 302 436C400 436 449 372 465 340ZM270 587L334 587L334 729L270 729Z"  horiz-adv-x="584" vert-adv-y="1000"  />

      
      <glyph glyph-name="uni010F" unicode="&#x010F;" d="M495 0L558 0L558 736L495 736L495 381C482 412 425 494 304 494C167 494 63 390 63 241C63 92 167-12 304-12C425-12 482 74 495 106ZM497 241C497 134 422 47 313 47C201 47 128 134 128 241C128 349 201 435 313 435C422 435 497 349 497 241ZM630 577L685 577L741 760L683 760Z"  horiz-adv-x="657" vert-adv-y="1000"  />

      
      <glyph glyph-name="uni0115" unicode="&#x0115;" d="M304 494C163 494 62 383 62 241C62 102 165-12 313-12C467-12 530 89 541 129L480 129C466 107 424 47 313 47C198 47 126 137 126 241L126 242L547 242C544 387 447 494 304 494ZM304 439C397 439 459 381 478 296L130 296C149 380 209 439 304 439ZM304 623C251 623 228 662 228 703L228 722L174 722L174 702C174 630 218 571 304 571C389 571 435 630 435 702L435 722L380 722L380 703C380 660 357 623 304 623Z"  horiz-adv-x="604" vert-adv-y="1000"  />

      
      <glyph glyph-name="uni011B" unicode="&#x011B;" d="M304 494C163 494 62 383 62 241C62 102 165-12 313-12C467-12 530 89 541 129L480 129C466 107 424 47 313 47C198 47 126 137 126 241L126 242L547 242C544 387 447 494 304 494ZM304 439C397 439 459 381 478 296L130 296C149 380 209 439 304 439ZM451 760L390 760L304 633L219 760L157 760L278 577L329 577Z"  horiz-adv-x="604" vert-adv-y="1000"  />

      
      <glyph glyph-name="uni0117" unicode="&#x0117;" d="M304 494C163 494 62 383 62 241C62 102 165-12 313-12C467-12 530 89 541 129L480 129C466 107 424 47 313 47C198 47 126 137 126 241L126 242L547 242C544 387 447 494 304 494ZM304 439C397 439 459 381 478 296L130 296C149 380 209 439 304 439ZM272 587L336 587L336 729L272 729Z"  horiz-adv-x="604" vert-adv-y="1000"  />

      
      <glyph glyph-name="uni0113" unicode="&#x0113;" d="M304 494C163 494 62 383 62 241C62 102 165-12 313-12C467-12 530 89 541 129L480 129C466 107 424 47 313 47C198 47 126 137 126 241L126 242L547 242C544 387 447 494 304 494ZM304 439C397 439 459 381 478 296L130 296C149 380 209 439 304 439ZM449 620L449 675L159 675L159 620Z"  horiz-adv-x="604" vert-adv-y="1000"  />

      
      <glyph glyph-name="uni0119" unicode="&#x0119;" d="M304 494C163 494 62 383 62 241C62 102 165-12 313-12C331-12 348-10 363-6C307-41 264-81 264-133C264-193 310-224 383-224L467-224L467-167L386-167C351-167 329-151 329-122C329-86 364-48 440 8C500 53 530 92 541 129L480 129C467 109 425 47 313 47C198 47 126 137 126 241L126 242L547 242C544 387 447 494 304 494ZM304 439C397 439 459 381 478 296L130 296C149 380 209 439 304 439Z"  horiz-adv-x="604" vert-adv-y="1000"  />

      
      <glyph glyph-name="uni011F" unicode="&#x011F;" d="M496 1C496-114 425-178 309-178C196-178 149-116 136-92L67-92C80-135 143-236 309-236C467-236 558-142 558 1L558 482L496 482L496 381C483 412 425 494 304 494C168 494 63 390 63 241C63 92 168-12 304-12C425-12 483 72 496 104ZM497 241C497 135 422 47 313 47C202 47 128 135 128 241C128 348 202 435 313 435C422 435 497 348 497 241ZM311 623C258 623 235 662 235 703L235 722L181 722L181 702C181 630 225 571 311 571C396 571 442 630 442 702L442 722L387 722L387 703C387 660 364 623 311 623Z"  horiz-adv-x="657" vert-adv-y="1000"  />

      
      <glyph glyph-name="uni011D" unicode="&#x011D;" d="M496 1C496-114 425-178 309-178C196-178 149-116 136-92L67-92C80-135 143-236 309-236C467-236 558-142 558 1L558 482L496 482L496 381C483 412 425 494 304 494C168 494 63 390 63 241C63 92 168-12 304-12C425-12 483 72 496 104ZM497 241C497 135 422 47 313 47C202 47 128 135 128 241C128 348 202 435 313 435C422 435 497 348 497 241ZM397 574L458 574L337 757L286 757L164 574L226 574L312 701Z"  horiz-adv-x="657" vert-adv-y="1000"  />

      
      <glyph glyph-name="uni0123" unicode="&#x0123;" d="M496 1C496-114 425-178 309-178C196-178 149-116 136-92L67-92C80-135 143-236 309-236C467-236 558-142 558 1L558 482L496 482L496 381C483 412 425 494 304 494C168 494 63 390 63 241C63 92 168-12 304-12C425-12 483 72 496 104ZM497 241C497 135 422 47 313 47C202 47 128 135 128 241C128 348 202 435 313 435C422 435 497 348 497 241ZM298 807C281 764 271 719 271 658L271 587L348 587L348 692L311 692C314 724 324 767 343 807Z"  horiz-adv-x="657" vert-adv-y="1000"  />

      
      <glyph glyph-name="uni0121" unicode="&#x0121;" d="M496 1C496-114 425-178 309-178C196-178 149-116 136-92L67-92C80-135 143-236 309-236C467-236 558-142 558 1L558 482L496 482L496 381C483 412 425 494 304 494C168 494 63 390 63 241C63 92 168-12 304-12C425-12 483 72 496 104ZM497 241C497 135 422 47 313 47C202 47 128 135 128 241C128 348 202 435 313 435C422 435 497 348 497 241ZM279 587L343 587L343 729L279 729Z"  horiz-adv-x="657" vert-adv-y="1000"  />

      
      <glyph glyph-name="uni0127" unicode="&#x0127;" d="M162 262C162 366 230 435 322 435C418 435 482 369 482 262L482 0L545 0L545 273C545 402 459 494 335 494C242 494 180 430 162 380L162 580L386 580L386 633L162 633L162 736L99 736L99 633L-4 633L-4 580L99 580L99 0L162 0Z"  horiz-adv-x="638" vert-adv-y="1000"  />

      
      <glyph glyph-name="uni0125" unicode="&#x0125;" d="M162 262C162 366 230 435 322 435C418 435 482 369 482 262L482 0L545 0L545 273C545 402 459 494 335 494C242 494 180 430 162 380L162 736L99 736L99 0L162 0ZM421 806L488 806L349 952L296 952L156 806L225 806L323 905Z"  horiz-adv-x="638" vert-adv-y="1000"  />

      
      <glyph glyph-name="uni012D" unicode="&#x012D;" d="M131 623C79 623 57 661 57 701L57 722L3 722L3 700C3 628 46 571 131 571C215 571 259 628 259 700L259 722L204 722L204 701C204 660 182 623 131 623ZM100 0L162 0L162 482L100 482Z"  horiz-adv-x="262" vert-adv-y="1000"  />

      
      <glyph glyph-name="uni012B" unicode="&#x012B;" d="M261 620L261 675L1 675L1 620ZM100 0L162 0L162 482L100 482Z"  horiz-adv-x="262" vert-adv-y="1000"  />

      
      <glyph glyph-name="uni012F" unicode="&#x012F;" d="M99 587L163 587L163 729L99 729ZM100 0L162 0L162 482L100 482ZM189-167L106-167C73-167 51-152 51-123C51-87 87-60 162 0L99 0C31-47-14-80-14-133C-14-193 32-224 105-224L189-224Z"  horiz-adv-x="262" vert-adv-y="1000"  />

      
      <glyph glyph-name="uni0129" unicode="&#x0129;" d="M39 573L39 644C39 665 46 675 60 675C73 675 81 668 96 653L131 619C156 594 175 578 206 578C253 578 274 610 274 661L274 736L222 736L222 665C222 644 215 634 201 634C188 634 180 641 165 656L131 690C104 715 87 731 55 731C8 731-13 699-13 648L-13 573ZM100 0L162 0L162 482L100 482Z"  horiz-adv-x="262" vert-adv-y="1000"  />

      
      <glyph glyph-name="uni0135" unicode="&#x0135;" d="M214 574L274 574L156 757L105 757L-15 574L47 574L131 701ZM162 482L100 482L100-48C100-128 70-165-5-165L-120-165L-120-224L3-224C112-224 162-170 162-53Z"  horiz-adv-x="262" vert-adv-y="1000"  />

      
      <glyph glyph-name="uni0137" unicode="&#x0137;" d="M472 0L563 0L231 253L550 482L455 482L160 269L160 736L99 736L99 0L160 0L160 232ZM324-320C341-277 351-232 351-171L351-100L274-100L274-205L311-205C308-237 298-280 279-320Z"  horiz-adv-x="576" vert-adv-y="1000"  />

      
      <glyph glyph-name="uni013A" unicode="&#x013A;" d="M101 0L164 0L164 736L101 736ZM97 809L168 809L281 949L206 949Z"  horiz-adv-x="265" vert-adv-y="1000"  />

      
      <glyph glyph-name="uni013E" unicode="&#x013E;" d="M101 0L164 0L164 736L101 736ZM235 577L290 577L346 760L288 760Z"  horiz-adv-x="265" vert-adv-y="1000"  />

      
      <glyph glyph-name="uni013C" unicode="&#x013C;" d="M101 0L164 0L164 736L101 736ZM145-320C162-277 172-232 172-171L172-100L95-100L95-205L132-205C129-237 119-280 100-320Z"  horiz-adv-x="265" vert-adv-y="1000"  />

      
      <glyph glyph-name="uni0140" unicode="&#x0140;" d="M103 0L166 0L166 736L103 736ZM298 308L374 308L374 445L298 445Z"  horiz-adv-x="404" vert-adv-y="1000"  />

      
      <glyph glyph-name="uni0144" unicode="&#x0144;" d="M162 262C162 366 230 435 322 435C418 435 482 369 482 262L482 0L545 0L545 273C545 402 459 494 335 494C242 494 180 430 162 380L162 482L99 482L99 0L162 0ZM285 577L350 577L459 750L391 750Z"  horiz-adv-x="638" vert-adv-y="1000"  />

      
      <glyph glyph-name="uni0149" unicode="&#x0149;" d="M357 262C357 366 425 435 517 435C613 435 677 369 677 262L677 0L740 0L740 273C740 402 654 494 530 494C437 494 375 430 357 380L357 482L294 482L294 0L357 0ZM109 419C140 478 157 541 157 620L157 736L78 736L78 614L116 614C113 543 94 484 61 419Z"  horiz-adv-x="833" vert-adv-y="1000"  />

      
      <glyph glyph-name="uni0148" unicode="&#x0148;" d="M162 262C162 366 230 435 322 435C418 435 482 369 482 262L482 0L545 0L545 273C545 402 459 494 335 494C242 494 180 430 162 380L162 482L99 482L99 0L162 0ZM464 760L403 760L317 633L232 760L170 760L291 577L342 577Z"  horiz-adv-x="638" vert-adv-y="1000"  />

      
      <glyph glyph-name="uni0146" unicode="&#x0146;" d="M162 262C162 366 230 435 322 435C418 435 482 369 482 262L482 0L545 0L545 273C545 402 459 494 335 494C242 494 180 430 162 380L162 482L99 482L99 0L162 0ZM335-320C352-277 362-232 362-171L362-100L285-100L285-205L322-205C319-237 309-280 290-320Z"  horiz-adv-x="638" vert-adv-y="1000"  />

      
      <glyph glyph-name="uni014F" unicode="&#x014F;" d="M312 494C172 494 62 384 62 241C62 97 172-12 312-12C452-12 562 97 562 241C562 384 452 494 312 494ZM312 47C204 47 127 133 127 241C127 348 204 436 312 436C421 436 498 349 498 241C498 132 421 47 312 47ZM312 623C259 623 236 662 236 703L236 722L182 722L182 702C182 630 226 571 312 571C397 571 443 630 443 702L443 722L388 722L388 703C388 660 365 623 312 623Z"  horiz-adv-x="624" vert-adv-y="1000"  />

      
      <glyph glyph-name="uni0151" unicode="&#x0151;" d="M312 494C172 494 62 384 62 241C62 97 172-12 312-12C452-12 562 97 562 241C562 384 452 494 312 494ZM312 47C204 47 127 133 127 241C127 348 204 436 312 436C421 436 498 349 498 241C498 132 421 47 312 47ZM369 577L426 577L512 750L451 750ZM195 577L253 577L339 750L277 750Z"  horiz-adv-x="624" vert-adv-y="1000"  />

      
      <glyph glyph-name="uni014D" unicode="&#x014D;" d="M312 494C172 494 62 384 62 241C62 97 172-12 312-12C452-12 562 97 562 241C562 384 452 494 312 494ZM312 47C204 47 127 133 127 241C127 348 204 436 312 436C421 436 498 349 498 241C498 132 421 47 312 47ZM457 620L457 675L167 675L167 620Z"  horiz-adv-x="624" vert-adv-y="1000"  />

      
      <glyph glyph-name="uni01FF" unicode="&#x01FF;" d="M562 241C562 304 541 359 505 402L583 482L510 482L468 439C425 474 372 495 312 495C172 495 62 385 62 241C62 180 83 124 118 81L39 0L112 0L155 44C198 9 252-12 312-12C452-12 562 97 562 241ZM127 241C127 348 204 436 312 436C357 436 396 423 428 397L160 124C138 157 127 196 127 241ZM498 241C498 132 421 47 312 47C266 47 227 60 195 86L463 359C486 326 498 287 498 241ZM275 577L340 577L449 750L381 750Z"  horiz-adv-x="624" vert-adv-y="1000"  />

      
      <glyph glyph-name="uni0155" unicode="&#x0155;" d="M162 274C162 366 211 422 342 422L467 422L467 484L343 484C215 484 176 420 162 382L162 482L99 482L99 0L162 0ZM255 577L320 577L429 750L361 750Z"  horiz-adv-x="500" vert-adv-y="1000"  />

      
      <glyph glyph-name="uni0159" unicode="&#x0159;" d="M162 274C162 366 211 422 342 422L467 422L467 484L343 484C215 484 176 420 162 382L162 482L99 482L99 0L162 0ZM438 760L377 760L291 633L206 760L144 760L265 577L316 577Z"  horiz-adv-x="500" vert-adv-y="1000"  />

      
      </font>
</defs>
</svg>
